<svg width="390" height="30" viewBox="0 0 390 30" fill="none" xmlns="http://www.w3.org/2000/svg">
<path d="M17.8086 0.933594H21.8711L13.2773 20.2109V29H9.33203V20.2305L0.777344 0.933594H4.87891L9.37109 11.9883L11.2852 17.1055H11.4219L13.2578 11.9883L17.8086 0.933594ZM30.9922 8.62891C32.4896 8.62891 33.7917 8.8763 34.8984 9.37109C36.0182 9.86589 36.9427 10.569 37.6719 11.4805C38.401 12.3789 38.9414 13.4661 39.293 14.7422C39.6576 16.0182 39.8398 17.4505 39.8398 19.0391C39.8398 20.5495 39.6576 21.9427 39.293 23.2188C38.9414 24.4948 38.401 25.5885 37.6719 26.5C36.9427 27.3984 36.0182 28.1016 34.8984 28.6094C33.7917 29.1042 32.4896 29.3516 30.9922 29.3516C29.4818 29.3516 28.1667 29.1042 27.0469 28.6094C25.9401 28.1016 25.0221 27.3984 24.293 26.5C23.5638 25.5885 23.0169 24.4948 22.6523 23.2188C22.3008 21.9427 22.125 20.5495 22.125 19.0391C22.125 17.4505 22.3008 16.0182 22.6523 14.7422C23.0169 13.4661 23.5638 12.3789 24.293 11.4805C25.0221 10.569 25.9401 9.86589 27.0469 9.37109C28.1667 8.8763 29.4818 8.62891 30.9922 8.62891ZM30.9922 26.6172C31.9688 26.6172 32.7891 26.4349 33.4531 26.0703C34.1172 25.7057 34.651 25.1849 35.0547 24.5078C35.4714 23.8307 35.7643 23.0234 35.9336 22.0859C36.1159 21.1354 36.207 20.1068 36.207 19C36.207 17.776 36.1159 16.6953 35.9336 15.7578C35.7513 14.8203 35.4518 14.0326 35.0352 13.3945C34.6315 12.7435 34.0977 12.2487 33.4336 11.9102C32.7695 11.5716 31.9557 11.4023 30.9922 11.4023C30.0156 11.4023 29.1953 11.5716 28.5312 11.9102C27.8672 12.2487 27.3268 12.7435 26.9102 13.3945C26.5065 14.0326 26.2135 14.8203 26.0312 15.7578C25.862 16.6953 25.7773 17.776 25.7773 19C25.7773 20.1068 25.862 21.1354 26.0312 22.0859C26.2135 23.0234 26.5065 23.8307 26.9102 24.5078C27.3268 25.1849 27.8672 25.7057 28.5312 26.0703C29.1953 26.4349 30.0156 26.6172 30.9922 26.6172ZM61.4219 29L58.8047 29.2148L58.3164 26.6953C57.8086 27.1901 57.2031 27.6328 56.5 28.0234C55.901 28.362 55.1719 28.668 54.3125 28.9414C53.4661 29.2148 52.4896 29.3516 51.3828 29.3516C49.1172 29.3516 47.457 28.6354 46.4023 27.2031C45.3607 25.7578 44.8398 23.5052 44.8398 20.4453V8.86328H48.4336V20.3086C48.4336 21.4414 48.4922 22.4115 48.6094 23.2188C48.7396 24.013 48.9479 24.6641 49.2344 25.1719C49.5339 25.6667 49.9245 26.0312 50.4062 26.2656C50.901 26.5 51.5065 26.6172 52.2227 26.6172C53.043 26.6172 53.7917 26.526 54.4688 26.3438C55.1589 26.1484 55.7513 25.9336 56.2461 25.6992C56.832 25.4258 57.3529 25.1133 57.8086 24.7617V8.86328H61.4219V29ZM76.5781 19.1172C76.5781 17.7891 76.6888 16.6042 76.9102 15.5625C77.1445 14.5078 77.457 13.5898 77.8477 12.8086C78.2513 12.0273 78.7201 11.3763 79.2539 10.8555C79.8008 10.3216 80.3867 9.89193 81.0117 9.56641C81.6497 9.22786 82.3138 8.98698 83.0039 8.84375C83.707 8.70052 84.4102 8.62891 85.1133 8.62891C85.9727 8.62891 86.7539 8.6875 87.457 8.80469C88.1602 8.90885 88.7656 9.03255 89.2734 9.17578C89.8724 9.33203 90.4062 9.51432 90.875 9.72266L91.168 12.3594C90.6602 12.1771 90.1068 12.0143 89.5078 11.8711C89 11.7539 88.4141 11.6432 87.75 11.5391C87.0859 11.4349 86.3828 11.3828 85.6406 11.3828C84.7682 11.3828 83.9935 11.526 83.3164 11.8125C82.6523 12.099 82.0924 12.5547 81.6367 13.1797C81.194 13.7917 80.8555 14.5859 80.6211 15.5625C80.3867 16.5391 80.2695 17.7044 80.2695 19.0586C80.2695 20.3477 80.3867 21.4805 80.6211 22.457C80.8555 23.4336 81.194 24.2344 81.6367 24.8594C82.0924 25.4714 82.6523 25.9206 83.3164 26.207C83.9935 26.4805 84.7682 26.6172 85.6406 26.6172C86.3828 26.6172 87.0859 26.5716 87.75 26.4805C88.4271 26.3763 89.0195 26.2656 89.5273 26.1484C90.1263 26.0052 90.6797 25.849 91.1875 25.6797L90.875 28.2773C90.4062 28.4857 89.8789 28.668 89.293 28.8242C88.7982 28.9674 88.1992 29.0911 87.4961 29.1953C86.806 29.2995 86.0443 29.3516 85.2109 29.3516C84.1302 29.3516 83.0755 29.1888 82.0469 28.8633C81.0182 28.5247 80.0938 27.9583 79.2734 27.1641C78.4661 26.3568 77.8151 25.2891 77.3203 23.9609C76.8255 22.6198 76.5781 21.0052 76.5781 19.1172ZM103.922 20.1523C103.544 20.1523 103.121 20.1654 102.652 20.1914C102.197 20.2044 101.734 20.25 101.266 20.3281C100.81 20.4062 100.367 20.5234 99.9375 20.6797C99.5078 20.8359 99.1237 21.0443 98.7852 21.3047C98.4596 21.5651 98.1927 21.9036 97.9844 22.3203C97.7891 22.724 97.6914 23.2057 97.6914 23.7656C97.6914 24.7682 98.0104 25.5104 98.6484 25.9922C99.2995 26.474 100.217 26.7148 101.402 26.7148C102.223 26.7148 102.965 26.6302 103.629 26.4609C104.306 26.2917 104.885 26.0964 105.367 25.875C105.927 25.6276 106.435 25.3411 106.891 25.0156V20.2695C106.591 20.2435 106.272 20.224 105.934 20.2109C105.647 20.1979 105.328 20.1914 104.977 20.1914C104.625 20.1784 104.273 20.1654 103.922 20.1523ZM110.484 24.9766C110.484 25.4453 110.51 25.8099 110.562 26.0703C110.628 26.3177 110.745 26.474 110.914 26.5391C111.096 26.6172 111.344 26.6497 111.656 26.6367C111.982 26.6237 112.281 26.6172 112.555 26.6172L112.301 29C112.118 29.0651 111.91 29.1237 111.676 29.1758C111.48 29.2279 111.246 29.2669 110.973 29.293C110.712 29.332 110.426 29.3516 110.113 29.3516C109.579 29.3516 109.124 29.2539 108.746 29.0586C108.382 28.8763 108.082 28.6549 107.848 28.3945C107.613 28.1341 107.438 27.8281 107.32 27.4766C107.216 27.125 107.164 26.8711 107.164 26.7148C106.812 27.2096 106.324 27.6523 105.699 28.043C105.165 28.3815 104.462 28.6875 103.59 28.9609C102.73 29.2214 101.65 29.3516 100.348 29.3516C99.4622 29.3516 98.6484 29.2279 97.9062 28.9805C97.1771 28.7201 96.5521 28.3424 96.0312 27.8477C95.5104 27.3529 95.1068 26.7409 94.8203 26.0117C94.5339 25.2826 94.3906 24.4883 94.3906 23.6289C94.3906 22.457 94.6445 21.5 95.1523 20.7578C95.6602 20.0156 96.3307 19.4362 97.1641 19.0195C97.9974 18.6029 98.9479 18.3164 100.016 18.1602C101.096 17.9909 102.203 17.9062 103.336 17.9062C103.792 17.9062 104.234 17.9258 104.664 17.9648C105.094 17.9909 105.478 18.0169 105.816 18.043C106.207 18.1081 106.565 18.1602 106.891 18.1992V15.9922C106.891 14.9635 106.812 14.1302 106.656 13.4922C106.5 12.8542 106.24 12.3659 105.875 12.0273C105.523 11.6888 105.061 11.4674 104.488 11.3633C103.915 11.2461 103.212 11.1875 102.379 11.1875C101.572 11.1875 100.79 11.2526 100.035 11.3828C99.2799 11.5 98.5964 11.6302 97.9844 11.7734C97.2682 11.9427 96.5977 12.1445 95.9727 12.3789L96.3633 9.66406C96.8581 9.44271 97.4245 9.24089 98.0625 9.05859C98.6094 8.90234 99.2669 8.75911 100.035 8.62891C100.803 8.4987 101.676 8.43359 102.652 8.43359C104.228 8.43359 105.523 8.58984 106.539 8.90234C107.555 9.20182 108.355 9.69661 108.941 10.3867C109.527 11.0638 109.931 11.9557 110.152 13.0625C110.374 14.1562 110.484 15.4909 110.484 17.0664V24.9766ZM116.969 8.86328L119.488 8.62891L120.016 10.9922C120.328 10.7578 120.712 10.5039 121.168 10.2305C121.637 9.94401 122.164 9.68359 122.75 9.44922C123.349 9.21484 124.007 9.01953 124.723 8.86328C125.452 8.70703 126.227 8.62891 127.047 8.62891C128.076 8.62891 128.987 8.77865 129.781 9.07812C130.589 9.36458 131.272 9.83333 131.832 10.4844C132.392 11.1224 132.815 11.9622 133.102 13.0039C133.401 14.0456 133.551 15.3151 133.551 16.8125V29H129.938V17.5938C129.938 16.526 129.879 15.6016 129.762 14.8203C129.645 14.0391 129.449 13.3945 129.176 12.8867C128.902 12.3789 128.531 12.0078 128.062 11.7734C127.607 11.526 127.034 11.4023 126.344 11.4023C125.615 11.4023 124.905 11.5 124.215 11.6953C123.538 11.8906 122.926 12.099 122.379 12.3203C121.754 12.5807 121.155 12.8802 120.582 13.2188V29H116.969V8.86328ZM148.531 19.1172C148.531 17.7891 148.642 16.6042 148.863 15.5625C149.098 14.5078 149.41 13.5898 149.801 12.8086C150.204 12.0273 150.673 11.3763 151.207 10.8555C151.754 10.3216 152.34 9.89193 152.965 9.56641C153.603 9.22786 154.267 8.98698 154.957 8.84375C155.66 8.70052 156.363 8.62891 157.066 8.62891C157.926 8.62891 158.707 8.6875 159.41 8.80469C160.113 8.90885 160.719 9.03255 161.227 9.17578C161.826 9.33203 162.359 9.51432 162.828 9.72266L163.121 12.3594C162.613 12.1771 162.06 12.0143 161.461 11.8711C160.953 11.7539 160.367 11.6432 159.703 11.5391C159.039 11.4349 158.336 11.3828 157.594 11.3828C156.721 11.3828 155.947 11.526 155.27 11.8125C154.605 12.099 154.046 12.5547 153.59 13.1797C153.147 13.7917 152.809 14.5859 152.574 15.5625C152.34 16.5391 152.223 17.7044 152.223 19.0586C152.223 20.3477 152.34 21.4805 152.574 22.457C152.809 23.4336 153.147 24.2344 153.59 24.8594C154.046 25.4714 154.605 25.9206 155.27 26.207C155.947 26.4805 156.721 26.6172 157.594 26.6172C158.336 26.6172 159.039 26.5716 159.703 26.4805C160.38 26.3763 160.973 26.2656 161.48 26.1484C162.079 26.0052 162.633 25.849 163.141 25.6797L162.828 28.2773C162.359 28.4857 161.832 28.668 161.246 28.8242C160.751 28.9674 160.152 29.0911 159.449 29.1953C158.759 29.2995 157.997 29.3516 157.164 29.3516C156.083 29.3516 155.029 29.1888 154 28.8633C152.971 28.5247 152.047 27.9583 151.227 27.1641C150.419 26.3568 149.768 25.2891 149.273 23.9609C148.779 22.6198 148.531 21.0052 148.531 19.1172ZM175.68 8.62891C177.177 8.62891 178.479 8.8763 179.586 9.37109C180.706 9.86589 181.63 10.569 182.359 11.4805C183.089 12.3789 183.629 13.4661 183.98 14.7422C184.345 16.0182 184.527 17.4505 184.527 19.0391C184.527 20.5495 184.345 21.9427 183.98 23.2188C183.629 24.4948 183.089 25.5885 182.359 26.5C181.63 27.3984 180.706 28.1016 179.586 28.6094C178.479 29.1042 177.177 29.3516 175.68 29.3516C174.169 29.3516 172.854 29.1042 171.734 28.6094C170.628 28.1016 169.71 27.3984 168.98 26.5C168.251 25.5885 167.704 24.4948 167.34 23.2188C166.988 21.9427 166.812 20.5495 166.812 19.0391C166.812 17.4505 166.988 16.0182 167.34 14.7422C167.704 13.4661 168.251 12.3789 168.98 11.4805C169.71 10.569 170.628 9.86589 171.734 9.37109C172.854 8.8763 174.169 8.62891 175.68 8.62891ZM175.68 26.6172C176.656 26.6172 177.477 26.4349 178.141 26.0703C178.805 25.7057 179.339 25.1849 179.742 24.5078C180.159 23.8307 180.452 23.0234 180.621 22.0859C180.803 21.1354 180.895 20.1068 180.895 19C180.895 17.776 180.803 16.6953 180.621 15.7578C180.439 14.8203 180.139 14.0326 179.723 13.3945C179.319 12.7435 178.785 12.2487 178.121 11.9102C177.457 11.5716 176.643 11.4023 175.68 11.4023C174.703 11.4023 173.883 11.5716 173.219 11.9102C172.555 12.2487 172.014 12.7435 171.598 13.3945C171.194 14.0326 170.901 14.8203 170.719 15.7578C170.549 16.6953 170.465 17.776 170.465 19C170.465 20.1068 170.549 21.1354 170.719 22.0859C170.901 23.0234 171.194 23.8307 171.598 24.5078C172.014 25.1849 172.555 25.7057 173.219 26.0703C173.883 26.4349 174.703 26.6172 175.68 26.6172ZM189.703 8.86328L192.223 8.62891L192.75 10.9922C193.062 10.7578 193.447 10.5039 193.902 10.2305C194.371 9.94401 194.898 9.68359 195.484 9.44922C196.083 9.21484 196.741 9.01953 197.457 8.86328C198.186 8.70703 198.961 8.62891 199.781 8.62891C200.81 8.62891 201.721 8.77865 202.516 9.07812C203.323 9.36458 204.007 9.83333 204.566 10.4844C205.126 11.1224 205.549 11.9622 205.836 13.0039C206.135 14.0456 206.285 15.3151 206.285 16.8125V29H202.672V17.5938C202.672 16.526 202.613 15.6016 202.496 14.8203C202.379 14.0391 202.184 13.3945 201.91 12.8867C201.637 12.3789 201.266 12.0078 200.797 11.7734C200.341 11.526 199.768 11.4023 199.078 11.4023C198.349 11.4023 197.639 11.5 196.949 11.6953C196.272 11.8906 195.66 12.099 195.113 12.3203C194.488 12.5807 193.889 12.8802 193.316 13.2188V29H189.703V8.86328ZM217.867 29.3516C216.982 29.3516 216.233 29.2409 215.621 29.0195C215.009 28.7982 214.514 28.4206 214.137 27.8867C213.759 27.3529 213.479 26.6432 213.297 25.7578C213.128 24.8594 213.043 23.7461 213.043 22.418V10.8945H210.27V8.86328H213.18L213.688 2.73047L216.598 2.16406V8.86328H221.598V10.8945H216.656V23.1797C216.656 23.8828 216.676 24.4688 216.715 24.9375C216.767 25.3932 216.865 25.7578 217.008 26.0312C217.164 26.3047 217.379 26.5 217.652 26.6172C217.939 26.7214 218.323 26.7734 218.805 26.7734C219.156 26.7734 219.495 26.7604 219.82 26.7344C220.146 26.6953 220.439 26.6497 220.699 26.5977C220.999 26.5456 221.272 26.487 221.52 26.4219L221.207 28.9414C220.973 29.0326 220.686 29.1042 220.348 29.1562C220.061 29.2083 219.71 29.2539 219.293 29.293C218.889 29.332 218.414 29.3516 217.867 29.3516ZM233.609 20.1523C233.232 20.1523 232.809 20.1654 232.34 20.1914C231.884 20.2044 231.422 20.25 230.953 20.3281C230.497 20.4062 230.055 20.5234 229.625 20.6797C229.195 20.8359 228.811 21.0443 228.473 21.3047C228.147 21.5651 227.88 21.9036 227.672 22.3203C227.477 22.724 227.379 23.2057 227.379 23.7656C227.379 24.7682 227.698 25.5104 228.336 25.9922C228.987 26.474 229.905 26.7148 231.09 26.7148C231.91 26.7148 232.652 26.6302 233.316 26.4609C233.993 26.2917 234.573 26.0964 235.055 25.875C235.615 25.6276 236.122 25.3411 236.578 25.0156V20.2695C236.279 20.2435 235.96 20.224 235.621 20.2109C235.335 20.1979 235.016 20.1914 234.664 20.1914C234.312 20.1784 233.961 20.1654 233.609 20.1523ZM240.172 24.9766C240.172 25.4453 240.198 25.8099 240.25 26.0703C240.315 26.3177 240.432 26.474 240.602 26.5391C240.784 26.6172 241.031 26.6497 241.344 26.6367C241.669 26.6237 241.969 26.6172 242.242 26.6172L241.988 29C241.806 29.0651 241.598 29.1237 241.363 29.1758C241.168 29.2279 240.934 29.2669 240.66 29.293C240.4 29.332 240.113 29.3516 239.801 29.3516C239.267 29.3516 238.811 29.2539 238.434 29.0586C238.069 28.8763 237.77 28.6549 237.535 28.3945C237.301 28.1341 237.125 27.8281 237.008 27.4766C236.904 27.125 236.852 26.8711 236.852 26.7148C236.5 27.2096 236.012 27.6523 235.387 28.043C234.853 28.3815 234.15 28.6875 233.277 28.9609C232.418 29.2214 231.337 29.3516 230.035 29.3516C229.15 29.3516 228.336 29.2279 227.594 28.9805C226.865 28.7201 226.24 28.3424 225.719 27.8477C225.198 27.3529 224.794 26.7409 224.508 26.0117C224.221 25.2826 224.078 24.4883 224.078 23.6289C224.078 22.457 224.332 21.5 224.84 20.7578C225.348 20.0156 226.018 19.4362 226.852 19.0195C227.685 18.6029 228.635 18.3164 229.703 18.1602C230.784 17.9909 231.891 17.9062 233.023 17.9062C233.479 17.9062 233.922 17.9258 234.352 17.9648C234.781 17.9909 235.165 18.0169 235.504 18.043C235.895 18.1081 236.253 18.1602 236.578 18.1992V15.9922C236.578 14.9635 236.5 14.1302 236.344 13.4922C236.188 12.8542 235.927 12.3659 235.562 12.0273C235.211 11.6888 234.749 11.4674 234.176 11.3633C233.603 11.2461 232.9 11.1875 232.066 11.1875C231.259 11.1875 230.478 11.2526 229.723 11.3828C228.967 11.5 228.284 11.6302 227.672 11.7734C226.956 11.9427 226.285 12.1445 225.66 12.3789L226.051 9.66406C226.546 9.44271 227.112 9.24089 227.75 9.05859C228.297 8.90234 228.954 8.75911 229.723 8.62891C230.491 8.4987 231.363 8.43359 232.34 8.43359C233.915 8.43359 235.211 8.58984 236.227 8.90234C237.242 9.20182 238.043 9.69661 238.629 10.3867C239.215 11.0638 239.618 11.9557 239.84 13.0625C240.061 14.1562 240.172 15.4909 240.172 17.0664V24.9766ZM245.641 19.1172C245.641 17.7891 245.751 16.6042 245.973 15.5625C246.207 14.5078 246.52 13.5898 246.91 12.8086C247.314 12.0273 247.783 11.3763 248.316 10.8555C248.863 10.3216 249.449 9.89193 250.074 9.56641C250.712 9.22786 251.376 8.98698 252.066 8.84375C252.77 8.70052 253.473 8.62891 254.176 8.62891C255.035 8.62891 255.816 8.6875 256.52 8.80469C257.223 8.90885 257.828 9.03255 258.336 9.17578C258.935 9.33203 259.469 9.51432 259.938 9.72266L260.23 12.3594C259.723 12.1771 259.169 12.0143 258.57 11.8711C258.062 11.7539 257.477 11.6432 256.812 11.5391C256.148 11.4349 255.445 11.3828 254.703 11.3828C253.831 11.3828 253.056 11.526 252.379 11.8125C251.715 12.099 251.155 12.5547 250.699 13.1797C250.257 13.7917 249.918 14.5859 249.684 15.5625C249.449 16.5391 249.332 17.7044 249.332 19.0586C249.332 20.3477 249.449 21.4805 249.684 22.457C249.918 23.4336 250.257 24.2344 250.699 24.8594C251.155 25.4714 251.715 25.9206 252.379 26.207C253.056 26.4805 253.831 26.6172 254.703 26.6172C255.445 26.6172 256.148 26.5716 256.812 26.4805C257.49 26.3763 258.082 26.2656 258.59 26.1484C259.189 26.0052 259.742 25.849 260.25 25.6797L259.938 28.2773C259.469 28.4857 258.941 28.668 258.355 28.8242C257.861 28.9674 257.262 29.0911 256.559 29.1953C255.868 29.2995 255.107 29.3516 254.273 29.3516C253.193 29.3516 252.138 29.1888 251.109 28.8633C250.081 28.5247 249.156 27.9583 248.336 27.1641C247.529 26.3568 246.878 25.2891 246.383 23.9609C245.888 22.6198 245.641 21.0052 245.641 19.1172ZM270.523 29.3516C269.638 29.3516 268.889 29.2409 268.277 29.0195C267.665 28.7982 267.171 28.4206 266.793 27.8867C266.415 27.3529 266.135 26.6432 265.953 25.7578C265.784 24.8594 265.699 23.7461 265.699 22.418V10.8945H262.926V8.86328H265.836L266.344 2.73047L269.254 2.16406V8.86328H274.254V10.8945H269.312V23.1797C269.312 23.8828 269.332 24.4688 269.371 24.9375C269.423 25.3932 269.521 25.7578 269.664 26.0312C269.82 26.3047 270.035 26.5 270.309 26.6172C270.595 26.7214 270.979 26.7734 271.461 26.7734C271.812 26.7734 272.151 26.7604 272.477 26.7344C272.802 26.6953 273.095 26.6497 273.355 26.5977C273.655 26.5456 273.928 26.487 274.176 26.4219L273.863 28.9414C273.629 29.0326 273.342 29.1042 273.004 29.1562C272.717 29.2083 272.366 29.2539 271.949 29.293C271.546 29.332 271.07 29.3516 270.523 29.3516ZM309.859 8.62891C311.708 8.62891 313.069 9.27995 313.941 10.582C314.814 11.8711 315.25 13.8307 315.25 16.4609V29H311.617V18.0234C311.617 16.8255 311.572 15.8099 311.48 14.9766C311.389 14.1302 311.233 13.4466 311.012 12.9258C310.803 12.3919 310.517 12.0078 310.152 11.7734C309.788 11.526 309.332 11.4023 308.785 11.4023C308.329 11.4023 307.822 11.4674 307.262 11.5977C306.702 11.7279 306.161 11.8841 305.641 12.0664C305.12 12.2487 304.651 12.4505 304.234 12.6719C303.831 12.8802 303.551 13.0625 303.395 13.2188C303.434 13.4922 303.479 13.8438 303.531 14.2734C303.57 14.651 303.603 15.1328 303.629 15.7188C303.668 16.2917 303.688 16.9883 303.688 17.8086V29H300.055V17.3398C300.055 16.1549 300.009 15.1784 299.918 14.4102C299.84 13.6419 299.703 13.0365 299.508 12.5938C299.312 12.138 299.046 11.8255 298.707 11.6562C298.382 11.487 297.971 11.4023 297.477 11.4023C296.904 11.4023 296.344 11.4674 295.797 11.5977C295.25 11.7148 294.729 11.8646 294.234 12.0469C293.753 12.2292 293.303 12.431 292.887 12.6523C292.483 12.8607 292.132 13.0495 291.832 13.2188V29H288.219V8.86328L290.738 8.62891L291.266 10.9922C292.307 10.224 293.395 9.63802 294.527 9.23438C295.673 8.83073 296.897 8.62891 298.199 8.62891C299.501 8.62891 300.523 8.84375 301.266 9.27344C302.021 9.6901 302.548 10.2826 302.848 11.0508C303.251 10.7122 303.688 10.3932 304.156 10.0938C304.638 9.79427 305.165 9.54036 305.738 9.33203C306.311 9.11068 306.936 8.94141 307.613 8.82422C308.29 8.69401 309.039 8.62891 309.859 8.62891ZM329.039 11.3047C328.427 11.3047 327.835 11.4023 327.262 11.5977C326.702 11.7799 326.194 12.0924 325.738 12.5352C325.283 12.9779 324.898 13.5638 324.586 14.293C324.286 15.0091 324.098 15.9531 324.02 17.125H333.258C333.258 16.9167 333.264 16.7539 333.277 16.6367C333.29 16.5326 333.297 16.4284 333.297 16.3242C333.297 16.2201 333.297 16.1224 333.297 16.0312C333.271 15.1979 333.147 14.4883 332.926 13.9023C332.704 13.3034 332.405 12.8151 332.027 12.4375C331.65 12.0469 331.207 11.7604 330.699 11.5781C330.191 11.3958 329.638 11.3047 329.039 11.3047ZM335.211 28.4141C334.742 28.5833 334.221 28.7396 333.648 28.8828C333.154 29 332.574 29.1042 331.91 29.1953C331.246 29.2995 330.517 29.3516 329.723 29.3516C326.572 29.3516 324.202 28.5052 322.613 26.8125C321.025 25.1198 320.23 22.5872 320.23 19.2148C320.23 17.3268 320.452 15.7318 320.895 14.4297C321.337 13.1146 321.949 12.0273 322.73 11.168C323.512 10.3086 324.436 9.67057 325.504 9.25391C326.572 8.83724 327.724 8.62891 328.961 8.62891C330.185 8.62891 331.259 8.82422 332.184 9.21484C333.108 9.60547 333.876 10.1263 334.488 10.7773C335.1 11.4154 335.562 12.151 335.875 12.9844C336.201 13.8177 336.376 14.6836 336.402 15.582C336.402 15.8555 336.389 16.2005 336.363 16.6172C336.35 17.0208 336.324 17.3984 336.285 17.75C336.259 18.0885 336.227 18.401 336.188 18.6875C336.161 18.974 336.129 19.1823 336.09 19.3125H323.961V20.0156C323.961 21.2135 324.104 22.2487 324.391 23.1211C324.677 23.9935 325.081 24.6901 325.602 25.2109C326.135 25.7188 326.773 26.0833 327.516 26.3047C328.258 26.513 329.078 26.6172 329.977 26.6172C330.719 26.6172 331.422 26.5781 332.086 26.5C332.763 26.4089 333.362 26.3112 333.883 26.207C334.495 26.0898 335.061 25.9531 335.582 25.7969L335.211 28.4141ZM359.234 8.62891C360.732 8.62891 362.034 8.8763 363.141 9.37109C364.26 9.86589 365.185 10.569 365.914 11.4805C366.643 12.3789 367.184 13.4661 367.535 14.7422C367.9 16.0182 368.082 17.4505 368.082 19.0391C368.082 20.5495 367.9 21.9427 367.535 23.2188C367.184 24.4948 366.643 25.5885 365.914 26.5C365.185 27.3984 364.26 28.1016 363.141 28.6094C362.034 29.1042 360.732 29.3516 359.234 29.3516C357.724 29.3516 356.409 29.1042 355.289 28.6094C354.182 28.1016 353.264 27.3984 352.535 26.5C351.806 25.5885 351.259 24.4948 350.895 23.2188C350.543 21.9427 350.367 20.5495 350.367 19.0391C350.367 17.4505 350.543 16.0182 350.895 14.7422C351.259 13.4661 351.806 12.3789 352.535 11.4805C353.264 10.569 354.182 9.86589 355.289 9.37109C356.409 8.8763 357.724 8.62891 359.234 8.62891ZM359.234 26.6172C360.211 26.6172 361.031 26.4349 361.695 26.0703C362.359 25.7057 362.893 25.1849 363.297 24.5078C363.714 23.8307 364.007 23.0234 364.176 22.0859C364.358 21.1354 364.449 20.1068 364.449 19C364.449 17.776 364.358 16.6953 364.176 15.7578C363.993 14.8203 363.694 14.0326 363.277 13.3945C362.874 12.7435 362.34 12.2487 361.676 11.9102C361.012 11.5716 360.198 11.4023 359.234 11.4023C358.258 11.4023 357.438 11.5716 356.773 11.9102C356.109 12.2487 355.569 12.7435 355.152 13.3945C354.749 14.0326 354.456 14.8203 354.273 15.7578C354.104 16.6953 354.02 17.776 354.02 19C354.02 20.1068 354.104 21.1354 354.273 22.0859C354.456 23.0234 354.749 23.8307 355.152 24.5078C355.569 25.1849 356.109 25.7057 356.773 26.0703C357.438 26.4349 358.258 26.6172 359.234 26.6172ZM373.258 8.86328L375.777 8.62891L376.305 10.9922C376.617 10.7578 377.001 10.5039 377.457 10.2305C377.926 9.94401 378.453 9.68359 379.039 9.44922C379.638 9.21484 380.296 9.01953 381.012 8.86328C381.741 8.70703 382.516 8.62891 383.336 8.62891C384.365 8.62891 385.276 8.77865 386.07 9.07812C386.878 9.36458 387.561 9.83333 388.121 10.4844C388.681 11.1224 389.104 11.9622 389.391 13.0039C389.69 14.0456 389.84 15.3151 389.84 16.8125V29H386.227V17.5938C386.227 16.526 386.168 15.6016 386.051 14.8203C385.934 14.0391 385.738 13.3945 385.465 12.8867C385.191 12.3789 384.82 12.0078 384.352 11.7734C383.896 11.526 383.323 11.4023 382.633 11.4023C381.904 11.4023 381.194 11.5 380.504 11.6953C379.827 11.8906 379.215 12.099 378.668 12.3203C378.043 12.5807 377.444 12.8802 376.871 13.2188V29H373.258V8.86328Z" fill="white"/>
</svg>
