<svg width="506" height="38" viewBox="0 0 506 38" fill="none" xmlns="http://www.w3.org/2000/svg">
<path d="M17.8984 15.7773H4.24609V29H0.632812V0.933594H4.24609V13.043H17.8984V0.933594H21.5117V29H17.8984V15.7773ZM27.9961 29V8.86328H31.5898V29H27.9961ZM31.668 1.5V5.05469H27.8984V1.5H31.668ZM37.3711 25.0938L41.7852 24.7812C41.8112 25.0938 41.8438 25.4323 41.8828 25.7969C41.9089 26.1094 41.9349 26.4674 41.9609 26.8711C41.987 27.2747 42 27.7044 42 28.1602C42 28.7721 41.9349 29.332 41.8047 29.8398C41.6745 30.3607 41.4596 30.8294 41.1602 31.2461C40.8607 31.6758 40.457 32.0469 39.9492 32.3594C39.4544 32.6849 38.8294 32.9518 38.0742 33.1602L37.5469 31.5977C38.276 31.5195 38.8164 31.2396 39.168 30.7578C39.5326 30.276 39.7148 29.6901 39.7148 29H37.3711V25.0938ZM68.2109 29V0.933594H71.7852V29H68.2109ZM96.5508 20.1523C96.1732 20.1523 95.75 20.1654 95.2812 20.1914C94.8255 20.2044 94.3633 20.25 93.8945 20.3281C93.4388 20.4062 92.9961 20.5234 92.5664 20.6797C92.1367 20.8359 91.7526 21.0443 91.4141 21.3047C91.0885 21.5651 90.8216 21.9036 90.6133 22.3203C90.418 22.724 90.3203 23.2057 90.3203 23.7656C90.3203 24.7682 90.6393 25.5104 91.2773 25.9922C91.9284 26.474 92.8464 26.7148 94.0312 26.7148C94.8516 26.7148 95.5938 26.6302 96.2578 26.4609C96.9349 26.2917 97.5143 26.0964 97.9961 25.875C98.556 25.6276 99.0638 25.3411 99.5195 25.0156V20.2695C99.2201 20.2435 98.901 20.224 98.5625 20.2109C98.276 20.1979 97.957 20.1914 97.6055 20.1914C97.2539 20.1784 96.9023 20.1654 96.5508 20.1523ZM103.113 24.9766C103.113 25.4453 103.139 25.8099 103.191 26.0703C103.257 26.3177 103.374 26.474 103.543 26.5391C103.725 26.6172 103.973 26.6497 104.285 26.6367C104.611 26.6237 104.91 26.6172 105.184 26.6172L104.93 29C104.747 29.0651 104.539 29.1237 104.305 29.1758C104.109 29.2279 103.875 29.2669 103.602 29.293C103.341 29.332 103.055 29.3516 102.742 29.3516C102.208 29.3516 101.753 29.2539 101.375 29.0586C101.01 28.8763 100.711 28.6549 100.477 28.3945C100.242 28.1341 100.066 27.8281 99.9492 27.4766C99.8451 27.125 99.793 26.8711 99.793 26.7148C99.4414 27.2096 98.9531 27.6523 98.3281 28.043C97.7943 28.3815 97.0911 28.6875 96.2188 28.9609C95.3594 29.2214 94.2786 29.3516 92.9766 29.3516C92.0911 29.3516 91.2773 29.2279 90.5352 28.9805C89.806 28.7201 89.181 28.3424 88.6602 27.8477C88.1393 27.3529 87.7357 26.7409 87.4492 26.0117C87.1628 25.2826 87.0195 24.4883 87.0195 23.6289C87.0195 22.457 87.2734 21.5 87.7812 20.7578C88.2891 20.0156 88.9596 19.4362 89.793 19.0195C90.6263 18.6029 91.5768 18.3164 92.6445 18.1602C93.7253 17.9909 94.832 17.9062 95.9648 17.9062C96.4206 17.9062 96.8633 17.9258 97.293 17.9648C97.7227 17.9909 98.1068 18.0169 98.4453 18.043C98.8359 18.1081 99.194 18.1602 99.5195 18.1992V15.9922C99.5195 14.9635 99.4414 14.1302 99.2852 13.4922C99.1289 12.8542 98.8685 12.3659 98.5039 12.0273C98.1523 11.6888 97.6901 11.4674 97.1172 11.3633C96.5443 11.2461 95.8411 11.1875 95.0078 11.1875C94.2005 11.1875 93.4193 11.2526 92.6641 11.3828C91.9089 11.5 91.2253 11.6302 90.6133 11.7734C89.8971 11.9427 89.2266 12.1445 88.6016 12.3789L88.9922 9.66406C89.487 9.44271 90.0534 9.24089 90.6914 9.05859C91.2383 8.90234 91.8958 8.75911 92.6641 8.62891C93.4323 8.4987 94.3047 8.43359 95.2812 8.43359C96.8568 8.43359 98.1523 8.58984 99.168 8.90234C100.184 9.20182 100.984 9.69661 101.57 10.3867C102.156 11.0638 102.56 11.9557 102.781 13.0625C103.003 14.1562 103.113 15.4909 103.113 17.0664V24.9766ZM131.238 8.62891C133.087 8.62891 134.448 9.27995 135.32 10.582C136.193 11.8711 136.629 13.8307 136.629 16.4609V29H132.996V18.0234C132.996 16.8255 132.951 15.8099 132.859 14.9766C132.768 14.1302 132.612 13.4466 132.391 12.9258C132.182 12.3919 131.896 12.0078 131.531 11.7734C131.167 11.526 130.711 11.4023 130.164 11.4023C129.708 11.4023 129.201 11.4674 128.641 11.5977C128.081 11.7279 127.54 11.8841 127.02 12.0664C126.499 12.2487 126.03 12.4505 125.613 12.6719C125.21 12.8802 124.93 13.0625 124.773 13.2188C124.812 13.4922 124.858 13.8438 124.91 14.2734C124.949 14.651 124.982 15.1328 125.008 15.7188C125.047 16.2917 125.066 16.9883 125.066 17.8086V29H121.434V17.3398C121.434 16.1549 121.388 15.1784 121.297 14.4102C121.219 13.6419 121.082 13.0365 120.887 12.5938C120.691 12.138 120.424 11.8255 120.086 11.6562C119.76 11.487 119.35 11.4023 118.855 11.4023C118.283 11.4023 117.723 11.4674 117.176 11.5977C116.629 11.7148 116.108 11.8646 115.613 12.0469C115.132 12.2292 114.682 12.431 114.266 12.6523C113.862 12.8607 113.51 13.0495 113.211 13.2188V29H109.598V8.86328L112.117 8.62891L112.645 10.9922C113.686 10.224 114.773 9.63802 115.906 9.23438C117.052 8.83073 118.276 8.62891 119.578 8.62891C120.88 8.62891 121.902 8.84375 122.645 9.27344C123.4 9.6901 123.927 10.2826 124.227 11.0508C124.63 10.7122 125.066 10.3932 125.535 10.0938C126.017 9.79427 126.544 9.54036 127.117 9.33203C127.69 9.11068 128.315 8.94141 128.992 8.82422C129.669 8.69401 130.418 8.62891 131.238 8.62891ZM156.102 22.6133L154.168 29H150.359L159.656 0.933594H163.582L172.859 29H169.031L167.117 22.6133H156.102ZM156.746 20.4258H166.453L161.629 4.72266L156.746 20.4258ZM176.746 1.28516L180.34 0.933594V29H176.746V1.28516ZM194.285 11.3047C193.673 11.3047 193.081 11.4023 192.508 11.5977C191.948 11.7799 191.44 12.0924 190.984 12.5352C190.529 12.9779 190.145 13.5638 189.832 14.293C189.533 15.0091 189.344 15.9531 189.266 17.125H198.504C198.504 16.9167 198.51 16.7539 198.523 16.6367C198.536 16.5326 198.543 16.4284 198.543 16.3242C198.543 16.2201 198.543 16.1224 198.543 16.0312C198.517 15.1979 198.393 14.4883 198.172 13.9023C197.951 13.3034 197.651 12.8151 197.273 12.4375C196.896 12.0469 196.453 11.7604 195.945 11.5781C195.438 11.3958 194.884 11.3047 194.285 11.3047ZM200.457 28.4141C199.988 28.5833 199.467 28.7396 198.895 28.8828C198.4 29 197.82 29.1042 197.156 29.1953C196.492 29.2995 195.763 29.3516 194.969 29.3516C191.818 29.3516 189.448 28.5052 187.859 26.8125C186.271 25.1198 185.477 22.5872 185.477 19.2148C185.477 17.3268 185.698 15.7318 186.141 14.4297C186.583 13.1146 187.195 12.0273 187.977 11.168C188.758 10.3086 189.682 9.67057 190.75 9.25391C191.818 8.83724 192.97 8.62891 194.207 8.62891C195.431 8.62891 196.505 8.82422 197.43 9.21484C198.354 9.60547 199.122 10.1263 199.734 10.7773C200.346 11.4154 200.809 12.151 201.121 12.9844C201.447 13.8177 201.622 14.6836 201.648 15.582C201.648 15.8555 201.635 16.2005 201.609 16.6172C201.596 17.0208 201.57 17.3984 201.531 17.75C201.505 18.0885 201.473 18.401 201.434 18.6875C201.408 18.974 201.375 19.1823 201.336 19.3125H189.207V20.0156C189.207 21.2135 189.35 22.2487 189.637 23.1211C189.923 23.9935 190.327 24.6901 190.848 25.2109C191.382 25.7188 192.02 26.0833 192.762 26.3047C193.504 26.513 194.324 26.6172 195.223 26.6172C195.965 26.6172 196.668 26.5781 197.332 26.5C198.009 26.4089 198.608 26.3112 199.129 26.207C199.741 26.0898 200.307 25.9531 200.828 25.7969L200.457 28.4141ZM211.258 18.9805L204.578 8.86328H208.367L213.289 16.9492L218.172 8.86328H222L215.281 18.9805L222 29H217.957L213.289 21.1484L208.582 29H204.578L211.258 18.9805ZM234.168 20.1523C233.79 20.1523 233.367 20.1654 232.898 20.1914C232.443 20.2044 231.98 20.25 231.512 20.3281C231.056 20.4062 230.613 20.5234 230.184 20.6797C229.754 20.8359 229.37 21.0443 229.031 21.3047C228.706 21.5651 228.439 21.9036 228.23 22.3203C228.035 22.724 227.938 23.2057 227.938 23.7656C227.938 24.7682 228.257 25.5104 228.895 25.9922C229.546 26.474 230.464 26.7148 231.648 26.7148C232.469 26.7148 233.211 26.6302 233.875 26.4609C234.552 26.2917 235.132 26.0964 235.613 25.875C236.173 25.6276 236.681 25.3411 237.137 25.0156V20.2695C236.837 20.2435 236.518 20.224 236.18 20.2109C235.893 20.1979 235.574 20.1914 235.223 20.1914C234.871 20.1784 234.52 20.1654 234.168 20.1523ZM240.73 24.9766C240.73 25.4453 240.757 25.8099 240.809 26.0703C240.874 26.3177 240.991 26.474 241.16 26.5391C241.342 26.6172 241.59 26.6497 241.902 26.6367C242.228 26.6237 242.527 26.6172 242.801 26.6172L242.547 29C242.365 29.0651 242.156 29.1237 241.922 29.1758C241.727 29.2279 241.492 29.2669 241.219 29.293C240.958 29.332 240.672 29.3516 240.359 29.3516C239.826 29.3516 239.37 29.2539 238.992 29.0586C238.628 28.8763 238.328 28.6549 238.094 28.3945C237.859 28.1341 237.684 27.8281 237.566 27.4766C237.462 27.125 237.41 26.8711 237.41 26.7148C237.059 27.2096 236.57 27.6523 235.945 28.043C235.411 28.3815 234.708 28.6875 233.836 28.9609C232.977 29.2214 231.896 29.3516 230.594 29.3516C229.708 29.3516 228.895 29.2279 228.152 28.9805C227.423 28.7201 226.798 28.3424 226.277 27.8477C225.757 27.3529 225.353 26.7409 225.066 26.0117C224.78 25.2826 224.637 24.4883 224.637 23.6289C224.637 22.457 224.891 21.5 225.398 20.7578C225.906 20.0156 226.577 19.4362 227.41 19.0195C228.243 18.6029 229.194 18.3164 230.262 18.1602C231.342 17.9909 232.449 17.9062 233.582 17.9062C234.038 17.9062 234.48 17.9258 234.91 17.9648C235.34 17.9909 235.724 18.0169 236.062 18.043C236.453 18.1081 236.811 18.1602 237.137 18.1992V15.9922C237.137 14.9635 237.059 14.1302 236.902 13.4922C236.746 12.8542 236.486 12.3659 236.121 12.0273C235.77 11.6888 235.307 11.4674 234.734 11.3633C234.161 11.2461 233.458 11.1875 232.625 11.1875C231.818 11.1875 231.036 11.2526 230.281 11.3828C229.526 11.5 228.842 11.6302 228.23 11.7734C227.514 11.9427 226.844 12.1445 226.219 12.3789L226.609 9.66406C227.104 9.44271 227.671 9.24089 228.309 9.05859C228.855 8.90234 229.513 8.75911 230.281 8.62891C231.049 8.4987 231.922 8.43359 232.898 8.43359C234.474 8.43359 235.77 8.58984 236.785 8.90234C237.801 9.20182 238.602 9.69661 239.188 10.3867C239.773 11.0638 240.177 11.9557 240.398 13.0625C240.62 14.1562 240.73 15.4909 240.73 17.0664V24.9766ZM247.215 8.86328L249.734 8.62891L250.262 10.9922C250.574 10.7578 250.958 10.5039 251.414 10.2305C251.883 9.94401 252.41 9.68359 252.996 9.44922C253.595 9.21484 254.253 9.01953 254.969 8.86328C255.698 8.70703 256.473 8.62891 257.293 8.62891C258.322 8.62891 259.233 8.77865 260.027 9.07812C260.835 9.36458 261.518 9.83333 262.078 10.4844C262.638 11.1224 263.061 11.9622 263.348 13.0039C263.647 14.0456 263.797 15.3151 263.797 16.8125V29H260.184V17.5938C260.184 16.526 260.125 15.6016 260.008 14.8203C259.891 14.0391 259.695 13.3945 259.422 12.8867C259.148 12.3789 258.777 12.0078 258.309 11.7734C257.853 11.526 257.28 11.4023 256.59 11.4023C255.861 11.4023 255.151 11.5 254.461 11.6953C253.784 11.8906 253.172 12.099 252.625 12.3203C252 12.5807 251.401 12.8802 250.828 13.2188V29H247.215V8.86328ZM276.746 29.3516C275.783 29.3516 274.826 29.1758 273.875 28.8242C272.924 28.4727 272.072 27.8932 271.316 27.0859C270.574 26.2786 269.969 25.224 269.5 23.9219C269.044 22.6068 268.816 20.9987 268.816 19.0977C268.816 17.2617 269.018 15.6797 269.422 14.3516C269.826 13.0234 270.372 11.9362 271.062 11.0898C271.766 10.2435 272.579 9.625 273.504 9.23438C274.441 8.83073 275.438 8.62891 276.492 8.62891C277.326 8.62891 278.094 8.71354 278.797 8.88281C279.5 9.03906 280.112 9.20833 280.633 9.39062C281.245 9.61198 281.798 9.85938 282.293 10.1328V1.30469L285.867 0.933594V29L283.074 29.1562L282.449 27.0078C282.059 27.4505 281.59 27.8411 281.043 28.1797C280.574 28.4792 279.982 28.7526 279.266 29C278.562 29.2344 277.723 29.3516 276.746 29.3516ZM277.312 26.6172C278.042 26.6172 278.706 26.5195 279.305 26.3242C279.917 26.1289 280.444 25.9141 280.887 25.6797C281.408 25.4062 281.876 25.0872 282.293 24.7227V12.7305C281.811 12.4831 281.297 12.2617 280.75 12.0664C280.268 11.8971 279.715 11.7474 279.09 11.6172C278.465 11.474 277.788 11.4023 277.059 11.4023C275.496 11.4023 274.331 12.0794 273.562 13.4336C272.794 14.7878 272.41 16.7018 272.41 19.1758C272.41 20.5299 272.54 21.6823 272.801 22.6328C273.061 23.5703 273.413 24.3385 273.855 24.9375C274.311 25.5234 274.832 25.9531 275.418 26.2266C276.017 26.487 276.648 26.6172 277.312 26.6172ZM300.613 8.62891C300.874 8.62891 301.128 8.65495 301.375 8.70703C301.622 8.74609 301.844 8.79167 302.039 8.84375C302.273 8.90885 302.488 8.98047 302.684 9.05859L302.254 11.8516C302.202 11.8125 302.111 11.7669 301.98 11.7148C301.876 11.6888 301.727 11.6628 301.531 11.6367C301.336 11.5977 301.082 11.5781 300.77 11.5781C300.027 11.5781 299.344 11.6758 298.719 11.8711C298.094 12.0664 297.553 12.2747 297.098 12.4961C296.564 12.7565 296.076 13.056 295.633 13.3945V29H292.02V8.82422L294.539 8.62891L295.223 11.0898C295.978 10.3086 296.818 9.70312 297.742 9.27344C298.667 8.84375 299.624 8.62891 300.613 8.62891ZM314.285 20.1523C313.908 20.1523 313.484 20.1654 313.016 20.1914C312.56 20.2044 312.098 20.25 311.629 20.3281C311.173 20.4062 310.73 20.5234 310.301 20.6797C309.871 20.8359 309.487 21.0443 309.148 21.3047C308.823 21.5651 308.556 21.9036 308.348 22.3203C308.152 22.724 308.055 23.2057 308.055 23.7656C308.055 24.7682 308.374 25.5104 309.012 25.9922C309.663 26.474 310.581 26.7148 311.766 26.7148C312.586 26.7148 313.328 26.6302 313.992 26.4609C314.669 26.2917 315.249 26.0964 315.73 25.875C316.29 25.6276 316.798 25.3411 317.254 25.0156V20.2695C316.954 20.2435 316.635 20.224 316.297 20.2109C316.01 20.1979 315.691 20.1914 315.34 20.1914C314.988 20.1784 314.637 20.1654 314.285 20.1523ZM320.848 24.9766C320.848 25.4453 320.874 25.8099 320.926 26.0703C320.991 26.3177 321.108 26.474 321.277 26.5391C321.46 26.6172 321.707 26.6497 322.02 26.6367C322.345 26.6237 322.645 26.6172 322.918 26.6172L322.664 29C322.482 29.0651 322.273 29.1237 322.039 29.1758C321.844 29.2279 321.609 29.2669 321.336 29.293C321.076 29.332 320.789 29.3516 320.477 29.3516C319.943 29.3516 319.487 29.2539 319.109 29.0586C318.745 28.8763 318.445 28.6549 318.211 28.3945C317.977 28.1341 317.801 27.8281 317.684 27.4766C317.579 27.125 317.527 26.8711 317.527 26.7148C317.176 27.2096 316.688 27.6523 316.062 28.043C315.529 28.3815 314.826 28.6875 313.953 28.9609C313.094 29.2214 312.013 29.3516 310.711 29.3516C309.826 29.3516 309.012 29.2279 308.27 28.9805C307.54 28.7201 306.915 28.3424 306.395 27.8477C305.874 27.3529 305.47 26.7409 305.184 26.0117C304.897 25.2826 304.754 24.4883 304.754 23.6289C304.754 22.457 305.008 21.5 305.516 20.7578C306.023 20.0156 306.694 19.4362 307.527 19.0195C308.361 18.6029 309.311 18.3164 310.379 18.1602C311.46 17.9909 312.566 17.9062 313.699 17.9062C314.155 17.9062 314.598 17.9258 315.027 17.9648C315.457 17.9909 315.841 18.0169 316.18 18.043C316.57 18.1081 316.928 18.1602 317.254 18.1992V15.9922C317.254 14.9635 317.176 14.1302 317.02 13.4922C316.863 12.8542 316.603 12.3659 316.238 12.0273C315.887 11.6888 315.424 11.4674 314.852 11.3633C314.279 11.2461 313.576 11.1875 312.742 11.1875C311.935 11.1875 311.154 11.2526 310.398 11.3828C309.643 11.5 308.96 11.6302 308.348 11.7734C307.632 11.9427 306.961 12.1445 306.336 12.3789L306.727 9.66406C307.221 9.44271 307.788 9.24089 308.426 9.05859C308.973 8.90234 309.63 8.75911 310.398 8.62891C311.167 8.4987 312.039 8.43359 313.016 8.43359C314.591 8.43359 315.887 8.58984 316.902 8.90234C317.918 9.20182 318.719 9.69661 319.305 10.3867C319.891 11.0638 320.294 11.9557 320.516 13.0625C320.737 14.1562 320.848 15.4909 320.848 17.0664V24.9766ZM347.762 29.4688C346.186 29.4688 344.721 29.2474 343.367 28.8047C342.013 28.349 340.835 27.5547 339.832 26.4219C338.829 25.2891 338.035 23.7721 337.449 21.8711C336.876 19.957 336.583 17.6003 336.57 14.8008C336.57 12.0924 336.857 9.82031 337.43 7.98438C338.016 6.14844 338.823 4.67057 339.852 3.55078C340.893 2.41797 342.117 1.61068 343.523 1.12891C344.943 0.647135 346.486 0.40625 348.152 0.40625C349.207 0.40625 350.184 0.471354 351.082 0.601562C351.993 0.71875 352.781 0.848958 353.445 0.992188C354.227 1.16146 354.93 1.35026 355.555 1.55859L355.867 4.58594C355.216 4.35156 354.5 4.13672 353.719 3.94141C353.055 3.79818 352.28 3.66146 351.395 3.53125C350.509 3.40104 349.565 3.33594 348.562 3.33594C347.299 3.33594 346.167 3.53125 345.164 3.92188C344.161 4.3125 343.309 4.95052 342.605 5.83594C341.902 6.72135 341.362 7.88672 340.984 9.33203C340.62 10.7643 340.438 12.5742 340.438 14.7617C340.451 16.832 340.613 18.6289 340.926 20.1523C341.251 21.6628 341.733 22.8932 342.371 23.8438C343.022 24.7812 343.829 25.4648 344.793 25.8945C345.77 26.3242 346.902 26.5326 348.191 26.5195C349.272 26.5326 350.275 26.474 351.199 26.3438C352.124 26.2005 352.938 26.0247 353.641 25.8164C354.448 25.6081 355.19 25.3737 355.867 25.1133L355.535 28.1602C354.897 28.4076 354.174 28.6289 353.367 28.8242C352.677 28.9935 351.857 29.1432 350.906 29.2734C349.956 29.4036 348.908 29.4688 347.762 29.4688ZM360.652 1.28516L364.266 0.933594V10.9336C364.799 10.5169 365.327 10.1654 365.848 9.87891C366.368 9.57943 366.902 9.33854 367.449 9.15625C367.996 8.97396 368.556 8.84375 369.129 8.76562C369.715 8.67448 370.34 8.62891 371.004 8.62891C372.137 8.62891 373.1 8.79818 373.895 9.13672C374.702 9.46224 375.359 9.99609 375.867 10.7383C376.375 11.4674 376.74 12.4115 376.961 13.5703C377.195 14.7161 377.312 16.1094 377.312 17.75V29H373.699V18.0234C373.699 16.6953 373.621 15.6016 373.465 14.7422C373.309 13.8828 373.074 13.2057 372.762 12.7109C372.462 12.2161 372.085 11.8711 371.629 11.6758C371.186 11.4805 370.672 11.3828 370.086 11.3828C369.487 11.3828 368.888 11.4805 368.289 11.6758C367.69 11.8581 367.13 12.0729 366.609 12.3203C366.102 12.5547 365.639 12.7891 365.223 13.0234C364.819 13.2448 364.5 13.3945 364.266 13.4727V29H360.652V1.28516ZM399.754 29L397.137 29.2148L396.648 26.6953C396.141 27.1901 395.535 27.6328 394.832 28.0234C394.233 28.362 393.504 28.668 392.645 28.9414C391.798 29.2148 390.822 29.3516 389.715 29.3516C387.449 29.3516 385.789 28.6354 384.734 27.2031C383.693 25.7578 383.172 23.5052 383.172 20.4453V8.86328H386.766V20.3086C386.766 21.4414 386.824 22.4115 386.941 23.2188C387.072 24.013 387.28 24.6641 387.566 25.1719C387.866 25.6667 388.257 26.0312 388.738 26.2656C389.233 26.5 389.839 26.6172 390.555 26.6172C391.375 26.6172 392.124 26.526 392.801 26.3438C393.491 26.1484 394.083 25.9336 394.578 25.6992C395.164 25.4258 395.685 25.1133 396.141 24.7617V8.86328H399.754V29ZM408.27 8.62891L408.914 10.8945C409.344 10.582 409.793 10.2891 410.262 10.0156C410.743 9.72917 411.264 9.48828 411.824 9.29297C412.384 9.08464 412.99 8.92188 413.641 8.80469C414.305 8.6875 415.04 8.62891 415.848 8.62891C416.967 8.62891 417.964 8.83724 418.836 9.25391C419.721 9.65755 420.47 10.2826 421.082 11.1289C421.694 11.9622 422.156 13.0299 422.469 14.332C422.794 15.6341 422.957 17.1771 422.957 18.9609C422.957 20.7839 422.768 22.3594 422.391 23.6875C422.013 25.0026 421.492 26.0833 420.828 26.9297C420.177 27.763 419.402 28.375 418.504 28.7656C417.618 29.1562 416.661 29.3516 415.633 29.3516C414.734 29.3516 413.914 29.2604 413.172 29.0781C412.43 28.9089 411.785 28.7135 411.238 28.4922C410.613 28.2448 410.047 27.9518 409.539 27.6133V36.793L405.926 37.1055V8.84375L408.27 8.62891ZM409.539 25.1328C409.995 25.4062 410.49 25.6536 411.023 25.875C411.479 26.0573 412.02 26.2266 412.645 26.3828C413.27 26.5391 413.947 26.6172 414.676 26.6172C415.444 26.6172 416.115 26.4805 416.688 26.207C417.273 25.9206 417.762 25.4648 418.152 24.8398C418.543 24.2018 418.836 23.3815 419.031 22.3789C419.227 21.3763 419.324 20.1719 419.324 18.7656C419.324 16.1875 418.973 14.319 418.27 13.1602C417.579 11.9883 416.544 11.4023 415.164 11.4023C414.383 11.4023 413.654 11.4935 412.977 11.6758C412.299 11.8451 411.707 12.0339 411.199 12.2422C410.6 12.4766 410.047 12.75 409.539 13.0625V25.1328ZM445.203 29H441.57L433.719 20.0742L431.844 21.7148V29H428.23V1.28516L431.844 0.933594V18.0625L440.926 8.86328H444.656V9.52734L436.062 18.2578L445.203 28.3164V29ZM456.082 8.62891C457.579 8.62891 458.882 8.8763 459.988 9.37109C461.108 9.86589 462.033 10.569 462.762 11.4805C463.491 12.3789 464.031 13.4661 464.383 14.7422C464.747 16.0182 464.93 17.4505 464.93 19.0391C464.93 20.5495 464.747 21.9427 464.383 23.2188C464.031 24.4948 463.491 25.5885 462.762 26.5C462.033 27.3984 461.108 28.1016 459.988 28.6094C458.882 29.1042 457.579 29.3516 456.082 29.3516C454.572 29.3516 453.257 29.1042 452.137 28.6094C451.03 28.1016 450.112 27.3984 449.383 26.5C448.654 25.5885 448.107 24.4948 447.742 23.2188C447.391 21.9427 447.215 20.5495 447.215 19.0391C447.215 17.4505 447.391 16.0182 447.742 14.7422C448.107 13.4661 448.654 12.3789 449.383 11.4805C450.112 10.569 451.03 9.86589 452.137 9.37109C453.257 8.8763 454.572 8.62891 456.082 8.62891ZM456.082 26.6172C457.059 26.6172 457.879 26.4349 458.543 26.0703C459.207 25.7057 459.741 25.1849 460.145 24.5078C460.561 23.8307 460.854 23.0234 461.023 22.0859C461.206 21.1354 461.297 20.1068 461.297 19C461.297 17.776 461.206 16.6953 461.023 15.7578C460.841 14.8203 460.542 14.0326 460.125 13.3945C459.721 12.7435 459.188 12.2487 458.523 11.9102C457.859 11.5716 457.046 11.4023 456.082 11.4023C455.105 11.4023 454.285 11.5716 453.621 11.9102C452.957 12.2487 452.417 12.7435 452 13.3945C451.596 14.0326 451.303 14.8203 451.121 15.7578C450.952 16.6953 450.867 17.776 450.867 19C450.867 20.1068 450.952 21.1354 451.121 22.0859C451.303 23.0234 451.596 23.8307 452 24.5078C452.417 25.1849 452.957 25.7057 453.621 26.0703C454.285 26.4349 455.105 26.6172 456.082 26.6172ZM474.305 29L467.898 8.86328H471.688L476.434 25.8555L481.316 8.86328H485.008L478.621 29H474.305ZM497.02 20.1523C496.642 20.1523 496.219 20.1654 495.75 20.1914C495.294 20.2044 494.832 20.25 494.363 20.3281C493.908 20.4062 493.465 20.5234 493.035 20.6797C492.605 20.8359 492.221 21.0443 491.883 21.3047C491.557 21.5651 491.29 21.9036 491.082 22.3203C490.887 22.724 490.789 23.2057 490.789 23.7656C490.789 24.7682 491.108 25.5104 491.746 25.9922C492.397 26.474 493.315 26.7148 494.5 26.7148C495.32 26.7148 496.062 26.6302 496.727 26.4609C497.404 26.2917 497.983 26.0964 498.465 25.875C499.025 25.6276 499.533 25.3411 499.988 25.0156V20.2695C499.689 20.2435 499.37 20.224 499.031 20.2109C498.745 20.1979 498.426 20.1914 498.074 20.1914C497.723 20.1784 497.371 20.1654 497.02 20.1523ZM503.582 24.9766C503.582 25.4453 503.608 25.8099 503.66 26.0703C503.725 26.3177 503.842 26.474 504.012 26.5391C504.194 26.6172 504.441 26.6497 504.754 26.6367C505.079 26.6237 505.379 26.6172 505.652 26.6172L505.398 29C505.216 29.0651 505.008 29.1237 504.773 29.1758C504.578 29.2279 504.344 29.2669 504.07 29.293C503.81 29.332 503.523 29.3516 503.211 29.3516C502.677 29.3516 502.221 29.2539 501.844 29.0586C501.479 28.8763 501.18 28.6549 500.945 28.3945C500.711 28.1341 500.535 27.8281 500.418 27.4766C500.314 27.125 500.262 26.8711 500.262 26.7148C499.91 27.2096 499.422 27.6523 498.797 28.043C498.263 28.3815 497.56 28.6875 496.688 28.9609C495.828 29.2214 494.747 29.3516 493.445 29.3516C492.56 29.3516 491.746 29.2279 491.004 28.9805C490.275 28.7201 489.65 28.3424 489.129 27.8477C488.608 27.3529 488.204 26.7409 487.918 26.0117C487.632 25.2826 487.488 24.4883 487.488 23.6289C487.488 22.457 487.742 21.5 488.25 20.7578C488.758 20.0156 489.428 19.4362 490.262 19.0195C491.095 18.6029 492.046 18.3164 493.113 18.1602C494.194 17.9909 495.301 17.9062 496.434 17.9062C496.889 17.9062 497.332 17.9258 497.762 17.9648C498.191 17.9909 498.576 18.0169 498.914 18.043C499.305 18.1081 499.663 18.1602 499.988 18.1992V15.9922C499.988 14.9635 499.91 14.1302 499.754 13.4922C499.598 12.8542 499.337 12.3659 498.973 12.0273C498.621 11.6888 498.159 11.4674 497.586 11.3633C497.013 11.2461 496.31 11.1875 495.477 11.1875C494.669 11.1875 493.888 11.2526 493.133 11.3828C492.378 11.5 491.694 11.6302 491.082 11.7734C490.366 11.9427 489.695 12.1445 489.07 12.3789L489.461 9.66406C489.956 9.44271 490.522 9.24089 491.16 9.05859C491.707 8.90234 492.365 8.75911 493.133 8.62891C493.901 8.4987 494.773 8.43359 495.75 8.43359C497.326 8.43359 498.621 8.58984 499.637 8.90234C500.652 9.20182 501.453 9.69661 502.039 10.3867C502.625 11.0638 503.029 11.9557 503.25 13.0625C503.471 14.1562 503.582 15.4909 503.582 17.0664V24.9766Z" fill="white"/>
</svg>
