<svg width="425" height="20" viewBox="0 0 425 20" fill="none" xmlns="http://www.w3.org/2000/svg">
<path d="M2.66992 14.0156V2.15918H0.876953V1.12207H6.08887V2.15918H4.27832V14.0156H6.08887V15H0.876953V14.0156H2.66992ZM16.75 5.74512C16.4863 5.74512 16.208 5.76855 15.915 5.81543C15.6279 5.8623 15.3408 5.93262 15.0537 6.02637C14.7725 6.11426 14.4971 6.22559 14.2275 6.36035C13.9639 6.48926 13.7236 6.63867 13.5068 6.80859L12.9092 5.64844C13.2432 5.4668 13.5537 5.30859 13.8408 5.17383C14.1279 5.0332 14.418 4.91602 14.7109 4.82227C15.0098 4.72852 15.3203 4.6582 15.6426 4.61133C15.9707 4.56445 16.3398 4.54102 16.75 4.54102C17.6348 4.54102 18.3408 4.6377 18.8682 4.83105C19.4014 5.02441 19.8057 5.32324 20.0811 5.72754C20.3623 6.13184 20.5439 6.64746 20.626 7.27441C20.7139 7.90137 20.7578 8.64844 20.7578 9.51562V15H19.5273L19.2812 13.4355C18.8477 14.0449 18.332 14.4873 17.7344 14.7627C17.1367 15.0381 16.4658 15.1758 15.7217 15.1758C15.1943 15.1758 14.7168 15.1084 14.2891 14.9736C13.8672 14.8389 13.5068 14.6396 13.208 14.376C12.9092 14.1064 12.6777 13.7725 12.5137 13.374C12.3555 12.9756 12.2764 12.5127 12.2764 11.9854C12.2764 11.4756 12.373 11.0186 12.5664 10.6143C12.7598 10.21 13.0205 9.86719 13.3486 9.58594C13.6768 9.30469 14.0576 9.09082 14.4912 8.94434C14.9248 8.79199 15.3818 8.71582 15.8623 8.71582C16.3428 8.71582 16.7793 8.73926 17.1719 8.78613C17.5703 8.83301 17.9102 8.88574 18.1914 8.94434C18.4785 8.99707 18.7012 9.04688 18.8594 9.09375L19.0879 9.15527C19.0879 8.55176 19.0762 8.0332 19.0527 7.59961C19.0293 7.16602 18.9443 6.81445 18.7979 6.54492C18.6514 6.26953 18.4199 6.06738 18.1035 5.93848C17.7871 5.80957 17.3359 5.74512 16.75 5.74512ZM16.1348 13.9717C16.668 13.9717 17.1719 13.8574 17.6465 13.6289C18.127 13.4004 18.6074 13.0635 19.0879 12.6182V9.99902C18.8418 9.96387 18.6016 9.93457 18.3672 9.91113C18.1621 9.8877 17.9424 9.86719 17.708 9.84961C17.4736 9.82617 17.2539 9.81445 17.0488 9.81445C16.627 9.81445 16.2285 9.83789 15.8535 9.88477C15.4785 9.92578 15.1504 10.0195 14.8691 10.166C14.5879 10.3125 14.3652 10.5234 14.2012 10.7988C14.0371 11.0742 13.9551 11.4404 13.9551 11.8975C13.9551 12.3076 14.0078 12.6475 14.1133 12.917C14.2188 13.1807 14.3652 13.3916 14.5527 13.5498C14.7461 13.708 14.9746 13.8193 15.2383 13.8838C15.5078 13.9424 15.8066 13.9717 16.1348 13.9717ZM24.8711 15H23.2012V4.72559H24.4404L24.6777 6.53613C24.8652 6.23145 25.0791 5.95605 25.3193 5.70996C25.5654 5.46387 25.835 5.25586 26.1279 5.08594C26.4268 4.91016 26.7432 4.77539 27.0771 4.68164C27.417 4.58789 27.7744 4.54102 28.1494 4.54102C28.5244 4.54102 28.8643 4.59375 29.1689 4.69922C29.4736 4.79883 29.7432 4.93652 29.9775 5.1123C30.2119 5.28809 30.4082 5.49609 30.5664 5.73633C30.7305 5.9707 30.8594 6.22559 30.9531 6.50098C31.1523 6.20801 31.3896 5.94141 31.665 5.70117C31.9404 5.46094 32.2363 5.25586 32.5527 5.08594C32.875 4.91016 33.2119 4.77539 33.5635 4.68164C33.9209 4.58789 34.2812 4.54102 34.6445 4.54102C35.1602 4.54102 35.6113 4.63477 35.998 4.82227C36.3906 5.00977 36.7188 5.27051 36.9824 5.60449C37.2461 5.93262 37.4424 6.3252 37.5713 6.78223C37.7061 7.2334 37.7734 7.72852 37.7734 8.26758V15H36.1035V8.25C36.1035 7.72266 36.0566 7.29492 35.9629 6.9668C35.875 6.63867 35.752 6.38672 35.5938 6.21094C35.4414 6.0293 35.2598 5.90625 35.0488 5.8418C34.8438 5.77734 34.627 5.74512 34.3984 5.74512C33.8594 5.74512 33.3291 5.8916 32.8076 6.18457C32.292 6.47754 31.7617 6.90234 31.2168 7.45898V15H29.5469V8.25C29.5469 7.8457 29.5205 7.48828 29.4678 7.17773C29.415 6.86719 29.3242 6.60645 29.1953 6.39551C29.0723 6.17871 28.9023 6.01758 28.6855 5.91211C28.4688 5.80078 28.1934 5.74512 27.8594 5.74512C27.3965 5.74512 26.9189 5.8916 26.4268 6.18457C25.9404 6.47168 25.4219 6.89062 24.8711 7.44141V15ZM52.1787 2.15039C52.1787 2.01563 52.2021 1.88672 52.249 1.76367C52.2959 1.64062 52.3633 1.53516 52.4512 1.44727C52.5391 1.35352 52.6416 1.28027 52.7588 1.22754C52.876 1.16895 53.0049 1.13965 53.1455 1.13965C53.2861 1.13965 53.415 1.16895 53.5322 1.22754C53.6494 1.28027 53.752 1.35352 53.8398 1.44727C53.9277 1.53516 53.9951 1.64062 54.042 1.76367C54.0889 1.88672 54.1123 2.01563 54.1123 2.15039C54.1123 2.28516 54.0889 2.41406 54.042 2.53711C53.9951 2.66016 53.9277 2.76855 53.8398 2.8623C53.7578 2.9502 53.6553 3.02344 53.5322 3.08203C53.415 3.13477 53.2861 3.16113 53.1455 3.16113C53.0049 3.16113 52.873 3.13477 52.75 3.08203C52.6328 3.02344 52.5303 2.9502 52.4424 2.8623C52.3604 2.76855 52.2959 2.66016 52.249 2.53711C52.2021 2.41406 52.1787 2.28516 52.1787 2.15039ZM52.3281 15V5.64844H47.6611V15H45.9912V5.64844H43.75V4.72559H45.9912C45.9912 3.94043 46.0498 3.27539 46.167 2.73047C46.29 2.18555 46.4717 1.74316 46.7119 1.40332C46.9521 1.05762 47.2539 0.808594 47.6172 0.65625C47.9805 0.498047 48.4082 0.418945 48.9004 0.418945C49.2109 0.418945 49.4951 0.457031 49.7529 0.533203C50.0166 0.609375 50.2451 0.694336 50.4385 0.788086C50.667 0.893555 50.875 1.01367 51.0625 1.14844L50.5088 2.24707C50.333 2.1416 50.1514 2.04785 49.9639 1.96582C49.8057 1.89551 49.6299 1.83105 49.4365 1.77246C49.249 1.70801 49.0703 1.67578 48.9004 1.67578C48.7188 1.67578 48.5518 1.70508 48.3994 1.76367C48.2471 1.81641 48.1152 1.91016 48.0039 2.04492C47.8984 2.17969 47.8135 2.36133 47.749 2.58984C47.6904 2.8125 47.6611 3.09375 47.6611 3.43359V4.72559H53.9277V15H52.3281ZM58.3135 6.41309C58.5127 6.16699 58.7148 5.92969 58.9199 5.70117C59.125 5.47266 59.3389 5.27344 59.5615 5.10352C59.79 4.93359 60.0332 4.79883 60.291 4.69922C60.5488 4.59375 60.833 4.54102 61.1436 4.54102C61.4717 4.54102 61.7646 4.57617 62.0225 4.64648V5.98242C62.0107 5.97656 61.9785 5.9707 61.9258 5.96484C61.873 5.95898 61.8057 5.95605 61.7236 5.95605C61.6416 5.9502 61.5479 5.94727 61.4424 5.94727C61.3369 5.94727 61.2314 5.94727 61.126 5.94727C60.8799 5.94727 60.6367 5.98828 60.3965 6.07031C60.1562 6.15234 59.9219 6.26074 59.6934 6.39551C59.4707 6.52441 59.2539 6.67383 59.043 6.84375C58.8379 7.00781 58.6445 7.17773 58.4629 7.35352V15H56.793V4.72559H58.0498L58.3135 6.41309ZM65.5645 9.86719C65.2656 9.76172 64.9844 9.63281 64.7207 9.48047C64.457 9.32227 64.2285 9.1377 64.0352 8.92676C63.8418 8.70996 63.6895 8.46387 63.5781 8.18848C63.4668 7.91309 63.4111 7.60254 63.4111 7.25684C63.4111 6.7998 63.5049 6.40137 63.6924 6.06152C63.8857 5.71582 64.1406 5.43164 64.457 5.20898C64.7734 4.98633 65.1338 4.81934 65.5381 4.70801C65.9424 4.59668 66.3613 4.54102 66.7949 4.54102C67.1816 4.54102 67.5566 4.5791 67.9199 4.65527C68.2891 4.73145 68.626 4.8252 68.9307 4.93652C69.2412 5.04785 69.5107 5.16797 69.7393 5.29688C69.9678 5.41992 70.1406 5.52832 70.2578 5.62207L69.7129 6.72949C69.3555 6.4541 68.9365 6.22266 68.4561 6.03516C67.9814 5.8418 67.4658 5.74512 66.9092 5.74512C66.5635 5.74512 66.2588 5.78613 65.9951 5.86816C65.7373 5.94434 65.5205 6.0498 65.3447 6.18457C65.1689 6.31348 65.0371 6.46289 64.9492 6.63281C64.8613 6.80273 64.8174 6.98145 64.8174 7.16895C64.8174 7.49707 64.9434 7.7666 65.1953 7.97754C65.4531 8.18262 65.8076 8.36426 66.2588 8.52246L67.7354 9.04102C68.1865 9.19922 68.5938 9.37207 68.957 9.55957C69.3262 9.74707 69.6396 9.96387 69.8975 10.21C70.1611 10.4561 70.3633 10.7373 70.5039 11.0537C70.6504 11.3701 70.7236 11.7334 70.7236 12.1436C70.7236 12.5127 70.6592 12.8789 70.5303 13.2422C70.4072 13.6055 70.2021 13.9307 69.915 14.2178C69.6338 14.5049 69.2646 14.7393 68.8076 14.9209C68.3506 15.0967 67.7881 15.1846 67.1201 15.1846C66.6631 15.1846 66.2383 15.1436 65.8457 15.0615C65.459 14.9795 65.1133 14.8828 64.8086 14.7715C64.5039 14.6543 64.2402 14.5342 64.0176 14.4111C63.7949 14.2822 63.6221 14.1738 63.499 14.0859L64.0527 12.9697C64.1816 13.0752 64.3545 13.1865 64.5713 13.3037C64.7939 13.4209 65.0371 13.5293 65.3008 13.6289C65.5703 13.7285 65.8486 13.8105 66.1357 13.875C66.4229 13.9395 66.6982 13.9717 66.9619 13.9717C67.1553 13.9717 67.3809 13.9482 67.6387 13.9014C67.9023 13.8545 68.1484 13.7695 68.377 13.6465C68.6113 13.5234 68.8076 13.3535 68.9658 13.1367C69.1299 12.9199 69.2119 12.6445 69.2119 12.3105C69.2119 12.0762 69.1709 11.8711 69.0889 11.6953C69.0068 11.5137 68.8896 11.3555 68.7373 11.2207C68.5908 11.0801 68.415 10.957 68.21 10.8516C68.0049 10.7461 67.7793 10.6494 67.5332 10.5615L65.5645 9.86719ZM75.5752 15.1758C75.0596 15.1758 74.6465 15.0908 74.3359 14.9209C74.0254 14.7451 73.7881 14.4902 73.624 14.1562C73.46 13.8164 73.3516 13.3975 73.2988 12.8994C73.2461 12.3955 73.2197 11.8154 73.2197 11.1592V5.63965H71.6113V4.72559H73.2461L73.4658 1.55273L74.8896 1.14844V4.72559H77.8164V5.63965H74.8896V12.4072C74.8896 12.7236 74.9043 12.9844 74.9336 13.1895C74.9688 13.3887 75.0244 13.5469 75.1006 13.6641C75.1768 13.7812 75.2764 13.8633 75.3994 13.9102C75.5283 13.9512 75.6865 13.9717 75.874 13.9717C76.085 13.9717 76.3281 13.9131 76.6035 13.7959C76.8848 13.6729 77.2627 13.4795 77.7373 13.2158L78.3262 14.2969C77.8105 14.6133 77.3301 14.8389 76.8848 14.9736C76.4395 15.1084 76.0029 15.1758 75.5752 15.1758ZM83.7314 4.72559H85.3311L88.4512 12.8115L91.0967 4.72559H92.8105L88.9697 15.3252C88.8057 15.7764 88.624 16.1748 88.4248 16.5205C88.2314 16.8721 88.0293 17.1768 87.8184 17.4346C87.6074 17.6924 87.3965 17.9121 87.1855 18.0938C86.9746 18.2754 86.7695 18.4248 86.5703 18.542C86.1074 18.8232 85.6357 18.9873 85.1553 19.0342L84.707 17.9355C85.0527 17.8535 85.375 17.7422 85.6738 17.6016C85.9727 17.4668 86.2451 17.2793 86.4912 17.0391C86.7373 16.7988 86.96 16.4971 87.1592 16.1338C87.3643 15.7705 87.543 15.3252 87.6953 14.7979L83.7314 4.72559ZM102.048 14.1123C101.813 14.2822 101.547 14.4346 101.248 14.5693C100.949 14.6982 100.645 14.8096 100.334 14.9033C100.029 14.9912 99.7334 15.0586 99.4463 15.1055C99.1592 15.1523 98.9131 15.1758 98.708 15.1758C97.9346 15.1758 97.2578 15.0469 96.6777 14.7891C96.1035 14.5312 95.626 14.1709 95.2451 13.708C94.8643 13.2393 94.5771 12.6855 94.3838 12.0469C94.1963 11.4023 94.1025 10.6934 94.1025 9.91992C94.1025 9.22266 94.1934 8.55176 94.375 7.90723C94.5625 7.25684 94.8379 6.68262 95.2012 6.18457C95.5645 5.68652 96.0156 5.28809 96.5547 4.98926C97.0938 4.69043 97.7207 4.54102 98.4355 4.54102C99.1035 4.54102 99.6895 4.64355 100.193 4.84863C100.703 5.04785 101.131 5.33789 101.477 5.71875C101.822 6.09961 102.083 6.56543 102.259 7.11621C102.435 7.66699 102.522 8.29102 102.522 8.98828C102.522 9.17578 102.517 9.35742 102.505 9.5332C102.493 9.70312 102.476 9.86426 102.452 10.0166H95.7725C95.7725 10.749 95.8428 11.3672 95.9834 11.8711C96.124 12.375 96.3262 12.7822 96.5898 13.0928C96.8535 13.4033 97.1758 13.6289 97.5566 13.7695C97.9375 13.9043 98.3682 13.9717 98.8486 13.9717C99.1299 13.9717 99.3877 13.9512 99.6221 13.9102C99.8564 13.8633 100.076 13.7988 100.281 13.7168C100.492 13.6289 100.694 13.5205 100.888 13.3916C101.087 13.2627 101.292 13.1133 101.503 12.9434L102.048 14.1123ZM101.046 8.69824C101.046 8.22949 100.987 7.81348 100.87 7.4502C100.753 7.08105 100.589 6.77051 100.378 6.51855C100.167 6.2666 99.915 6.07617 99.6221 5.94727C99.335 5.8125 99.0186 5.74512 98.6729 5.74512C98.21 5.74512 97.8057 5.83008 97.46 6C97.1143 6.16992 96.8213 6.40137 96.5811 6.69434C96.3467 6.9873 96.1621 7.33301 96.0273 7.73145C95.8984 8.12402 95.8135 8.54883 95.7725 9.00586H101.046V8.69824ZM108.631 5.74512C108.367 5.74512 108.089 5.76855 107.796 5.81543C107.509 5.8623 107.222 5.93262 106.935 6.02637C106.653 6.11426 106.378 6.22559 106.108 6.36035C105.845 6.48926 105.604 6.63867 105.388 6.80859L104.79 5.64844C105.124 5.4668 105.435 5.30859 105.722 5.17383C106.009 5.0332 106.299 4.91602 106.592 4.82227C106.891 4.72852 107.201 4.6582 107.523 4.61133C107.852 4.56445 108.221 4.54102 108.631 4.54102C109.516 4.54102 110.222 4.6377 110.749 4.83105C111.282 5.02441 111.687 5.32324 111.962 5.72754C112.243 6.13184 112.425 6.64746 112.507 7.27441C112.595 7.90137 112.639 8.64844 112.639 9.51562V15H111.408L111.162 13.4355C110.729 14.0449 110.213 14.4873 109.615 14.7627C109.018 15.0381 108.347 15.1758 107.603 15.1758C107.075 15.1758 106.598 15.1084 106.17 14.9736C105.748 14.8389 105.388 14.6396 105.089 14.376C104.79 14.1064 104.559 13.7725 104.395 13.374C104.236 12.9756 104.157 12.5127 104.157 11.9854C104.157 11.4756 104.254 11.0186 104.447 10.6143C104.641 10.21 104.901 9.86719 105.229 9.58594C105.558 9.30469 105.938 9.09082 106.372 8.94434C106.806 8.79199 107.263 8.71582 107.743 8.71582C108.224 8.71582 108.66 8.73926 109.053 8.78613C109.451 8.83301 109.791 8.88574 110.072 8.94434C110.359 8.99707 110.582 9.04688 110.74 9.09375L110.969 9.15527C110.969 8.55176 110.957 8.0332 110.934 7.59961C110.91 7.16602 110.825 6.81445 110.679 6.54492C110.532 6.26953 110.301 6.06738 109.984 5.93848C109.668 5.80957 109.217 5.74512 108.631 5.74512ZM108.016 13.9717C108.549 13.9717 109.053 13.8574 109.527 13.6289C110.008 13.4004 110.488 13.0635 110.969 12.6182V9.99902C110.723 9.96387 110.482 9.93457 110.248 9.91113C110.043 9.8877 109.823 9.86719 109.589 9.84961C109.354 9.82617 109.135 9.81445 108.93 9.81445C108.508 9.81445 108.109 9.83789 107.734 9.88477C107.359 9.92578 107.031 10.0195 106.75 10.166C106.469 10.3125 106.246 10.5234 106.082 10.7988C105.918 11.0742 105.836 11.4404 105.836 11.8975C105.836 12.3076 105.889 12.6475 105.994 12.917C106.1 13.1807 106.246 13.3916 106.434 13.5498C106.627 13.708 106.855 13.8193 107.119 13.8838C107.389 13.9424 107.688 13.9717 108.016 13.9717ZM116.603 6.41309C116.802 6.16699 117.004 5.92969 117.209 5.70117C117.414 5.47266 117.628 5.27344 117.851 5.10352C118.079 4.93359 118.322 4.79883 118.58 4.69922C118.838 4.59375 119.122 4.54102 119.433 4.54102C119.761 4.54102 120.054 4.57617 120.312 4.64648V5.98242C120.3 5.97656 120.268 5.9707 120.215 5.96484C120.162 5.95898 120.095 5.95605 120.013 5.95605C119.931 5.9502 119.837 5.94727 119.731 5.94727C119.626 5.94727 119.521 5.94727 119.415 5.94727C119.169 5.94727 118.926 5.98828 118.686 6.07031C118.445 6.15234 118.211 6.26074 117.982 6.39551C117.76 6.52441 117.543 6.67383 117.332 6.84375C117.127 7.00781 116.934 7.17773 116.752 7.35352V15H115.082V4.72559H116.339L116.603 6.41309ZM128.354 9.86719C128.055 9.76172 127.773 9.63281 127.51 9.48047C127.246 9.32227 127.018 9.1377 126.824 8.92676C126.631 8.70996 126.479 8.46387 126.367 8.18848C126.256 7.91309 126.2 7.60254 126.2 7.25684C126.2 6.7998 126.294 6.40137 126.481 6.06152C126.675 5.71582 126.93 5.43164 127.246 5.20898C127.562 4.98633 127.923 4.81934 128.327 4.70801C128.731 4.59668 129.15 4.54102 129.584 4.54102C129.971 4.54102 130.346 4.5791 130.709 4.65527C131.078 4.73145 131.415 4.8252 131.72 4.93652C132.03 5.04785 132.3 5.16797 132.528 5.29688C132.757 5.41992 132.93 5.52832 133.047 5.62207L132.502 6.72949C132.145 6.4541 131.726 6.22266 131.245 6.03516C130.771 5.8418 130.255 5.74512 129.698 5.74512C129.353 5.74512 129.048 5.78613 128.784 5.86816C128.526 5.94434 128.31 6.0498 128.134 6.18457C127.958 6.31348 127.826 6.46289 127.738 6.63281C127.65 6.80273 127.606 6.98145 127.606 7.16895C127.606 7.49707 127.732 7.7666 127.984 7.97754C128.242 8.18262 128.597 8.36426 129.048 8.52246L130.524 9.04102C130.976 9.19922 131.383 9.37207 131.746 9.55957C132.115 9.74707 132.429 9.96387 132.687 10.21C132.95 10.4561 133.152 10.7373 133.293 11.0537C133.439 11.3701 133.513 11.7334 133.513 12.1436C133.513 12.5127 133.448 12.8789 133.319 13.2422C133.196 13.6055 132.991 13.9307 132.704 14.2178C132.423 14.5049 132.054 14.7393 131.597 14.9209C131.14 15.0967 130.577 15.1846 129.909 15.1846C129.452 15.1846 129.027 15.1436 128.635 15.0615C128.248 14.9795 127.902 14.8828 127.598 14.7715C127.293 14.6543 127.029 14.5342 126.807 14.4111C126.584 14.2822 126.411 14.1738 126.288 14.0859L126.842 12.9697C126.971 13.0752 127.144 13.1865 127.36 13.3037C127.583 13.4209 127.826 13.5293 128.09 13.6289C128.359 13.7285 128.638 13.8105 128.925 13.875C129.212 13.9395 129.487 13.9717 129.751 13.9717C129.944 13.9717 130.17 13.9482 130.428 13.9014C130.691 13.8545 130.938 13.7695 131.166 13.6465C131.4 13.5234 131.597 13.3535 131.755 13.1367C131.919 12.9199 132.001 12.6445 132.001 12.3105C132.001 12.0762 131.96 11.8711 131.878 11.6953C131.796 11.5137 131.679 11.3555 131.526 11.2207C131.38 11.0801 131.204 10.957 130.999 10.8516C130.794 10.7461 130.568 10.6494 130.322 10.5615L128.354 9.86719ZM138.364 15.1758C137.849 15.1758 137.436 15.0908 137.125 14.9209C136.814 14.7451 136.577 14.4902 136.413 14.1562C136.249 13.8164 136.141 13.3975 136.088 12.8994C136.035 12.3955 136.009 11.8154 136.009 11.1592V5.63965H134.4V4.72559H136.035L136.255 1.55273L137.679 1.14844V4.72559H140.605V5.63965H137.679V12.4072C137.679 12.7236 137.693 12.9844 137.723 13.1895C137.758 13.3887 137.813 13.5469 137.89 13.6641C137.966 13.7812 138.065 13.8633 138.188 13.9102C138.317 13.9512 138.476 13.9717 138.663 13.9717C138.874 13.9717 139.117 13.9131 139.393 13.7959C139.674 13.6729 140.052 13.4795 140.526 13.2158L141.115 14.2969C140.6 14.6133 140.119 14.8389 139.674 14.9736C139.229 15.1084 138.792 15.1758 138.364 15.1758ZM144.473 11.1152C144.473 11.625 144.517 12.0615 144.604 12.4248C144.698 12.7822 144.83 13.0752 145 13.3037C145.176 13.5322 145.39 13.7021 145.642 13.8135C145.894 13.9189 146.184 13.9717 146.512 13.9717C146.787 13.9717 147.054 13.9482 147.312 13.9014C147.569 13.8545 147.824 13.7754 148.076 13.6641C148.328 13.5527 148.58 13.4121 148.832 13.2422C149.084 13.0664 149.348 12.8496 149.623 12.5918V4.72559H151.293V15H150.054L149.816 13.4531C149.652 13.6348 149.459 13.8281 149.236 14.0332C149.02 14.2324 148.773 14.417 148.498 14.5869C148.223 14.7568 147.918 14.8975 147.584 15.0088C147.25 15.1201 146.887 15.1758 146.494 15.1758C145.908 15.1758 145.387 15.0996 144.93 14.9473C144.473 14.7949 144.086 14.5547 143.77 14.2266C143.453 13.8984 143.213 13.4795 143.049 12.9697C142.885 12.4541 142.803 11.8359 142.803 11.1152V4.72559H144.473V11.1152ZM155.028 9.86719C155.028 10.6523 155.093 11.3086 155.222 11.8359C155.356 12.3574 155.541 12.7764 155.775 13.0928C156.01 13.4092 156.285 13.6348 156.602 13.7695C156.924 13.9043 157.272 13.9717 157.647 13.9717C157.899 13.9717 158.16 13.9424 158.43 13.8838C158.699 13.8252 158.966 13.7402 159.229 13.6289C159.493 13.5117 159.751 13.3682 160.003 13.1982C160.255 13.0225 160.486 12.8174 160.697 12.583V7.06348C160.451 6.88184 160.205 6.71191 159.959 6.55371C159.713 6.38965 159.461 6.24902 159.203 6.13184C158.951 6.00879 158.69 5.91504 158.421 5.85059C158.157 5.78027 157.882 5.74512 157.595 5.74512C157.097 5.74512 156.684 5.85352 156.355 6.07031C156.027 6.28125 155.764 6.57422 155.564 6.94922C155.371 7.32422 155.233 7.76367 155.151 8.26758C155.069 8.76562 155.028 9.29883 155.028 9.86719ZM157.366 4.54102C158.034 4.54102 158.649 4.65527 159.212 4.88379C159.774 5.10645 160.27 5.4668 160.697 5.96484V1.12207L162.367 0.814453V15H161.128L160.882 13.4268C160.688 13.6729 160.469 13.9043 160.223 14.1211C159.982 14.332 159.722 14.5166 159.44 14.6748C159.159 14.833 158.863 14.9561 158.553 15.0439C158.248 15.1318 157.935 15.1758 157.612 15.1758C156.933 15.1758 156.332 15.0498 155.811 14.7979C155.295 14.5459 154.858 14.1826 154.501 13.708C154.149 13.2334 153.883 12.6562 153.701 11.9766C153.52 11.291 153.429 10.5176 153.429 9.65625C153.429 8.9707 153.52 8.32031 153.701 7.70508C153.889 7.08398 154.152 6.53906 154.492 6.07031C154.838 5.60156 155.254 5.22949 155.74 4.9541C156.227 4.67871 156.769 4.54102 157.366 4.54102ZM172.448 14.1123C172.214 14.2822 171.947 14.4346 171.648 14.5693C171.35 14.6982 171.045 14.8096 170.734 14.9033C170.43 14.9912 170.134 15.0586 169.847 15.1055C169.56 15.1523 169.313 15.1758 169.108 15.1758C168.335 15.1758 167.658 15.0469 167.078 14.7891C166.504 14.5312 166.026 14.1709 165.646 13.708C165.265 13.2393 164.978 12.6855 164.784 12.0469C164.597 11.4023 164.503 10.6934 164.503 9.91992C164.503 9.22266 164.594 8.55176 164.775 7.90723C164.963 7.25684 165.238 6.68262 165.602 6.18457C165.965 5.68652 166.416 5.28809 166.955 4.98926C167.494 4.69043 168.121 4.54102 168.836 4.54102C169.504 4.54102 170.09 4.64355 170.594 4.84863C171.104 5.04785 171.531 5.33789 171.877 5.71875C172.223 6.09961 172.483 6.56543 172.659 7.11621C172.835 7.66699 172.923 8.29102 172.923 8.98828C172.923 9.17578 172.917 9.35742 172.905 9.5332C172.894 9.70312 172.876 9.86426 172.853 10.0166H166.173C166.173 10.749 166.243 11.3672 166.384 11.8711C166.524 12.375 166.727 12.7822 166.99 13.0928C167.254 13.4033 167.576 13.6289 167.957 13.7695C168.338 13.9043 168.769 13.9717 169.249 13.9717C169.53 13.9717 169.788 13.9512 170.022 13.9102C170.257 13.8633 170.477 13.7988 170.682 13.7168C170.893 13.6289 171.095 13.5205 171.288 13.3916C171.487 13.2627 171.692 13.1133 171.903 12.9434L172.448 14.1123ZM171.446 8.69824C171.446 8.22949 171.388 7.81348 171.271 7.4502C171.153 7.08105 170.989 6.77051 170.778 6.51855C170.567 6.2666 170.315 6.07617 170.022 5.94727C169.735 5.8125 169.419 5.74512 169.073 5.74512C168.61 5.74512 168.206 5.83008 167.86 6C167.515 6.16992 167.222 6.40137 166.981 6.69434C166.747 6.9873 166.562 7.33301 166.428 7.73145C166.299 8.12402 166.214 8.54883 166.173 9.00586H171.446V8.69824ZM176.377 6.36914C176.553 6.15234 176.787 5.93555 177.08 5.71875C177.373 5.50195 177.692 5.30566 178.038 5.12988C178.39 4.9541 178.753 4.81348 179.128 4.70801C179.509 4.59668 179.872 4.54102 180.218 4.54102C180.833 4.54102 181.352 4.63477 181.773 4.82227C182.201 5.00391 182.55 5.27051 182.819 5.62207C183.089 5.96777 183.282 6.39258 183.399 6.89648C183.522 7.40039 183.584 7.97168 183.584 8.61035V15H181.914V8.61035C181.914 8.16504 181.879 7.7666 181.809 7.41504C181.738 7.05762 181.624 6.75586 181.466 6.50977C181.308 6.26367 181.103 6.07617 180.851 5.94727C180.599 5.8125 180.288 5.74512 179.919 5.74512C179.638 5.74512 179.33 5.80078 178.996 5.91211C178.662 6.02344 178.34 6.1582 178.029 6.31641C177.719 6.47461 177.435 6.6416 177.177 6.81738C176.919 6.99316 176.729 7.14258 176.605 7.26562V15H174.936V4.72559H176.166L176.377 6.36914ZM189.077 15.1758C188.562 15.1758 188.148 15.0908 187.838 14.9209C187.527 14.7451 187.29 14.4902 187.126 14.1562C186.962 13.8164 186.854 13.3975 186.801 12.8994C186.748 12.3955 186.722 11.8154 186.722 11.1592V5.63965H185.113V4.72559H186.748L186.968 1.55273L188.392 1.14844V4.72559H191.318V5.63965H188.392V12.4072C188.392 12.7236 188.406 12.9844 188.436 13.1895C188.471 13.3887 188.526 13.5469 188.603 13.6641C188.679 13.7812 188.778 13.8633 188.901 13.9102C189.03 13.9512 189.188 13.9717 189.376 13.9717C189.587 13.9717 189.83 13.9131 190.105 13.7959C190.387 13.6729 190.765 13.4795 191.239 13.2158L191.828 14.2969C191.312 14.6133 190.832 14.8389 190.387 14.9736C189.941 15.1084 189.505 15.1758 189.077 15.1758ZM202.401 14.165C202.823 14.165 203.189 14.1064 203.5 13.9893C203.816 13.8662 204.086 13.7021 204.309 13.4971C204.537 13.2861 204.725 13.043 204.871 12.7676C205.018 12.4922 205.135 12.2021 205.223 11.8975C205.311 11.5869 205.372 11.2705 205.407 10.9482C205.442 10.626 205.46 10.3154 205.46 10.0166C205.46 9.71777 205.442 9.41016 205.407 9.09375C205.372 8.77148 205.311 8.45801 205.223 8.15332C205.135 7.84277 205.018 7.5498 204.871 7.27441C204.725 6.99902 204.537 6.75879 204.309 6.55371C204.086 6.34277 203.816 6.17871 203.5 6.06152C203.184 5.93848 202.817 5.87695 202.401 5.87695C201.985 5.87695 201.619 5.93848 201.303 6.06152C200.992 6.18457 200.723 6.35156 200.494 6.5625C200.271 6.76758 200.084 7.00781 199.932 7.2832C199.785 7.55859 199.668 7.84863 199.58 8.15332C199.492 8.45801 199.431 8.77148 199.396 9.09375C199.36 9.41602 199.343 9.72363 199.343 10.0166C199.343 10.3154 199.36 10.626 199.396 10.9482C199.431 11.2646 199.492 11.5781 199.58 11.8887C199.668 12.1934 199.785 12.4834 199.932 12.7588C200.084 13.0342 200.271 13.2773 200.494 13.4883C200.723 13.6934 200.992 13.8574 201.303 13.9805C201.619 14.1035 201.985 14.165 202.401 14.165ZM207.051 9.99023C207.051 10.4004 207.021 10.8193 206.963 11.2471C206.904 11.6689 206.805 12.0791 206.664 12.4775C206.523 12.876 206.336 13.248 206.102 13.5938C205.873 13.9395 205.586 14.2412 205.24 14.499C204.9 14.7568 204.493 14.959 204.019 15.1055C203.55 15.2578 203.008 15.334 202.393 15.334C201.777 15.334 201.232 15.2578 200.758 15.1055C200.289 14.959 199.882 14.7568 199.536 14.499C199.196 14.2412 198.909 13.9395 198.675 13.5938C198.446 13.248 198.262 12.876 198.121 12.4775C197.98 12.0791 197.881 11.6689 197.822 11.2471C197.764 10.8252 197.734 10.4062 197.734 9.99023C197.734 9.57422 197.764 9.15527 197.822 8.7334C197.881 8.30566 197.98 7.89551 198.121 7.50293C198.262 7.10449 198.446 6.73242 198.675 6.38672C198.909 6.04102 199.196 5.73926 199.536 5.48145C199.882 5.22363 200.289 5.02148 200.758 4.875C201.232 4.72852 201.777 4.65527 202.393 4.65527C203.008 4.65527 203.55 4.72852 204.019 4.875C204.493 5.02148 204.9 5.22363 205.24 5.48145C205.586 5.73926 205.873 6.04102 206.102 6.38672C206.336 6.73242 206.523 7.10449 206.664 7.50293C206.805 7.89551 206.904 8.30566 206.963 8.7334C207.021 9.15527 207.051 9.57422 207.051 9.99023ZM212.966 1.67578C212.62 1.67578 212.356 1.75195 212.175 1.9043C211.999 2.05078 211.873 2.25879 211.797 2.52832C211.721 2.79199 211.68 3.11133 211.674 3.48633C211.668 3.86133 211.665 4.27441 211.665 4.72559H214.724V5.64844H211.665V15H209.995V5.64844H208.281V4.72559H209.995C209.995 3.94043 210.048 3.27539 210.153 2.73047C210.265 2.18555 210.435 1.74316 210.663 1.40332C210.892 1.05762 211.179 0.808594 211.524 0.65625C211.876 0.498047 212.289 0.418945 212.764 0.418945C213.18 0.418945 213.584 0.483398 213.977 0.612305C214.369 0.735352 214.744 0.905273 215.102 1.12207L214.548 2.2207C214.308 2.08594 214.053 1.96289 213.783 1.85156C213.52 1.73438 213.247 1.67578 212.966 1.67578ZM224.075 15.1758C223.56 15.1758 223.146 15.0908 222.836 14.9209C222.525 14.7451 222.288 14.4902 222.124 14.1562C221.96 13.8164 221.852 13.3975 221.799 12.8994C221.746 12.3955 221.72 11.8154 221.72 11.1592V5.63965H220.111V4.72559H221.746L221.966 1.55273L223.39 1.14844V4.72559H226.316V5.63965H223.39V12.4072C223.39 12.7236 223.404 12.9844 223.434 13.1895C223.469 13.3887 223.524 13.5469 223.601 13.6641C223.677 13.7812 223.776 13.8633 223.899 13.9102C224.028 13.9512 224.187 13.9717 224.374 13.9717C224.585 13.9717 224.828 13.9131 225.104 13.7959C225.385 13.6729 225.763 13.4795 226.237 13.2158L226.826 14.2969C226.311 14.6133 225.83 14.8389 225.385 14.9736C224.939 15.1084 224.503 15.1758 224.075 15.1758ZM230.271 6.30762C230.6 5.9502 230.904 5.65723 231.186 5.42871C231.467 5.2002 231.739 5.02148 232.003 4.89258C232.272 4.75781 232.545 4.66699 232.82 4.62012C233.096 4.56738 233.395 4.54102 233.717 4.54102C234.25 4.54102 234.707 4.60254 235.088 4.72559C235.469 4.84277 235.791 5.00977 236.055 5.22656C236.318 5.44336 236.529 5.7041 236.688 6.00879C236.852 6.31348 236.975 6.65039 237.057 7.01953C237.145 7.38867 237.203 7.78418 237.232 8.20605C237.262 8.62793 237.276 9.06738 237.276 9.52441V15H235.606V9.52441C235.606 8.87402 235.58 8.31152 235.527 7.83691C235.475 7.3623 235.375 6.96973 235.229 6.65918C235.082 6.34863 234.877 6.12012 234.613 5.97363C234.35 5.82129 234.004 5.74512 233.576 5.74512C233.207 5.74512 232.85 5.79785 232.504 5.90332C232.158 6.00293 231.839 6.12891 231.546 6.28125C231.253 6.42773 230.995 6.58594 230.772 6.75586C230.556 6.91992 230.389 7.06641 230.271 7.19531V15H228.602V1.12207L230.271 0.796875V6.30762ZM247.331 14.1123C247.097 14.2822 246.83 14.4346 246.531 14.5693C246.232 14.6982 245.928 14.8096 245.617 14.9033C245.312 14.9912 245.017 15.0586 244.729 15.1055C244.442 15.1523 244.196 15.1758 243.991 15.1758C243.218 15.1758 242.541 15.0469 241.961 14.7891C241.387 14.5312 240.909 14.1709 240.528 13.708C240.147 13.2393 239.86 12.6855 239.667 12.0469C239.479 11.4023 239.386 10.6934 239.386 9.91992C239.386 9.22266 239.477 8.55176 239.658 7.90723C239.846 7.25684 240.121 6.68262 240.484 6.18457C240.848 5.68652 241.299 5.28809 241.838 4.98926C242.377 4.69043 243.004 4.54102 243.719 4.54102C244.387 4.54102 244.973 4.64355 245.477 4.84863C245.986 5.04785 246.414 5.33789 246.76 5.71875C247.105 6.09961 247.366 6.56543 247.542 7.11621C247.718 7.66699 247.806 8.29102 247.806 8.98828C247.806 9.17578 247.8 9.35742 247.788 9.5332C247.776 9.70312 247.759 9.86426 247.735 10.0166H241.056C241.056 10.749 241.126 11.3672 241.267 11.8711C241.407 12.375 241.609 12.7822 241.873 13.0928C242.137 13.4033 242.459 13.6289 242.84 13.7695C243.221 13.9043 243.651 13.9717 244.132 13.9717C244.413 13.9717 244.671 13.9512 244.905 13.9102C245.14 13.8633 245.359 13.7988 245.564 13.7168C245.775 13.6289 245.978 13.5205 246.171 13.3916C246.37 13.2627 246.575 13.1133 246.786 12.9434L247.331 14.1123ZM246.329 8.69824C246.329 8.22949 246.271 7.81348 246.153 7.4502C246.036 7.08105 245.872 6.77051 245.661 6.51855C245.45 6.2666 245.198 6.07617 244.905 5.94727C244.618 5.8125 244.302 5.74512 243.956 5.74512C243.493 5.74512 243.089 5.83008 242.743 6C242.397 6.16992 242.104 6.40137 241.864 6.69434C241.63 6.9873 241.445 7.33301 241.311 7.73145C241.182 8.12402 241.097 8.54883 241.056 9.00586H246.329V8.69824ZM255.707 14.0156V2.15918H253.914V1.12207H259.126V2.15918H257.315V14.0156H259.126V15H253.914V14.0156H255.707ZM262.633 6.36914C262.809 6.15234 263.043 5.93555 263.336 5.71875C263.629 5.50195 263.948 5.30566 264.294 5.12988C264.646 4.9541 265.009 4.81348 265.384 4.70801C265.765 4.59668 266.128 4.54102 266.474 4.54102C267.089 4.54102 267.607 4.63477 268.029 4.82227C268.457 5.00391 268.806 5.27051 269.075 5.62207C269.345 5.96777 269.538 6.39258 269.655 6.89648C269.778 7.40039 269.84 7.97168 269.84 8.61035V15H268.17V8.61035C268.17 8.16504 268.135 7.7666 268.064 7.41504C267.994 7.05762 267.88 6.75586 267.722 6.50977C267.563 6.26367 267.358 6.07617 267.106 5.94727C266.854 5.8125 266.544 5.74512 266.175 5.74512C265.894 5.74512 265.586 5.80078 265.252 5.91211C264.918 6.02344 264.596 6.1582 264.285 6.31641C263.975 6.47461 263.69 6.6416 263.433 6.81738C263.175 6.99316 262.984 7.14258 262.861 7.26562V15H261.191V4.72559H262.422L262.633 6.36914ZM273.777 6.36914C273.953 6.15234 274.188 5.93555 274.48 5.71875C274.773 5.50195 275.093 5.30566 275.438 5.12988C275.79 4.9541 276.153 4.81348 276.528 4.70801C276.909 4.59668 277.272 4.54102 277.618 4.54102C278.233 4.54102 278.752 4.63477 279.174 4.82227C279.602 5.00391 279.95 5.27051 280.22 5.62207C280.489 5.96777 280.683 6.39258 280.8 6.89648C280.923 7.40039 280.984 7.97168 280.984 8.61035V15H279.314V8.61035C279.314 8.16504 279.279 7.7666 279.209 7.41504C279.139 7.05762 279.024 6.75586 278.866 6.50977C278.708 6.26367 278.503 6.07617 278.251 5.94727C277.999 5.8125 277.688 5.74512 277.319 5.74512C277.038 5.74512 276.73 5.80078 276.396 5.91211C276.062 6.02344 275.74 6.1582 275.43 6.31641C275.119 6.47461 274.835 6.6416 274.577 6.81738C274.319 6.99316 274.129 7.14258 274.006 7.26562V15H272.336V4.72559H273.566L273.777 6.36914ZM287.778 14.165C288.2 14.165 288.566 14.1064 288.877 13.9893C289.193 13.8662 289.463 13.7021 289.686 13.4971C289.914 13.2861 290.102 13.043 290.248 12.7676C290.395 12.4922 290.512 12.2021 290.6 11.8975C290.688 11.5869 290.749 11.2705 290.784 10.9482C290.819 10.626 290.837 10.3154 290.837 10.0166C290.837 9.71777 290.819 9.41016 290.784 9.09375C290.749 8.77148 290.688 8.45801 290.6 8.15332C290.512 7.84277 290.395 7.5498 290.248 7.27441C290.102 6.99902 289.914 6.75879 289.686 6.55371C289.463 6.34277 289.193 6.17871 288.877 6.06152C288.561 5.93848 288.194 5.87695 287.778 5.87695C287.362 5.87695 286.996 5.93848 286.68 6.06152C286.369 6.18457 286.1 6.35156 285.871 6.5625C285.648 6.76758 285.461 7.00781 285.309 7.2832C285.162 7.55859 285.045 7.84863 284.957 8.15332C284.869 8.45801 284.808 8.77148 284.772 9.09375C284.737 9.41602 284.72 9.72363 284.72 10.0166C284.72 10.3154 284.737 10.626 284.772 10.9482C284.808 11.2646 284.869 11.5781 284.957 11.8887C285.045 12.1934 285.162 12.4834 285.309 12.7588C285.461 13.0342 285.648 13.2773 285.871 13.4883C286.1 13.6934 286.369 13.8574 286.68 13.9805C286.996 14.1035 287.362 14.165 287.778 14.165ZM292.428 9.99023C292.428 10.4004 292.398 10.8193 292.34 11.2471C292.281 11.6689 292.182 12.0791 292.041 12.4775C291.9 12.876 291.713 13.248 291.479 13.5938C291.25 13.9395 290.963 14.2412 290.617 14.499C290.277 14.7568 289.87 14.959 289.396 15.1055C288.927 15.2578 288.385 15.334 287.77 15.334C287.154 15.334 286.609 15.2578 286.135 15.1055C285.666 14.959 285.259 14.7568 284.913 14.499C284.573 14.2412 284.286 13.9395 284.052 13.5938C283.823 13.248 283.639 12.876 283.498 12.4775C283.357 12.0791 283.258 11.6689 283.199 11.2471C283.141 10.8252 283.111 10.4062 283.111 9.99023C283.111 9.57422 283.141 9.15527 283.199 8.7334C283.258 8.30566 283.357 7.89551 283.498 7.50293C283.639 7.10449 283.823 6.73242 284.052 6.38672C284.286 6.04102 284.573 5.73926 284.913 5.48145C285.259 5.22363 285.666 5.02148 286.135 4.875C286.609 4.72852 287.154 4.65527 287.77 4.65527C288.385 4.65527 288.927 4.72852 289.396 4.875C289.87 5.02148 290.277 5.22363 290.617 5.48145C290.963 5.73926 291.25 6.04102 291.479 6.38672C291.713 6.73242 291.9 7.10449 292.041 7.50293C292.182 7.89551 292.281 8.30566 292.34 8.7334C292.398 9.15527 292.428 9.57422 292.428 9.99023ZM299.468 5.74512C299.192 5.74512 298.905 5.7832 298.606 5.85938C298.313 5.92969 298.023 6.0293 297.736 6.1582C297.455 6.28125 297.186 6.43066 296.928 6.60645C296.676 6.78223 296.453 6.97266 296.26 7.17773V12.4951C296.424 12.6943 296.623 12.8848 296.857 13.0664C297.098 13.2422 297.353 13.3975 297.622 13.5322C297.897 13.667 298.179 13.7754 298.466 13.8574C298.753 13.9336 299.028 13.9717 299.292 13.9717C299.802 13.9717 300.227 13.8662 300.566 13.6553C300.906 13.4385 301.176 13.1514 301.375 12.7939C301.58 12.4307 301.724 12.0146 301.806 11.5459C301.894 11.0713 301.938 10.5791 301.938 10.0693C301.938 9.30762 301.873 8.6543 301.744 8.10938C301.621 7.56445 301.448 7.11621 301.226 6.76465C301.009 6.41309 300.748 6.15527 300.443 5.99121C300.145 5.82715 299.819 5.74512 299.468 5.74512ZM299.354 15.1758C299.055 15.1758 298.759 15.1318 298.466 15.0439C298.173 14.9619 297.892 14.8477 297.622 14.7012C297.358 14.5547 297.109 14.3848 296.875 14.1914C296.641 13.9922 296.436 13.7812 296.26 13.5586V19.0869L294.59 19.2803V4.72559H295.829L296.119 6.46582C296.318 6.20215 296.541 5.95313 296.787 5.71875C297.033 5.48437 297.294 5.28223 297.569 5.1123C297.845 4.93652 298.129 4.79883 298.422 4.69922C298.715 4.59375 299.011 4.54102 299.31 4.54102C299.925 4.54102 300.49 4.6377 301.006 4.83105C301.527 5.01855 301.973 5.32324 302.342 5.74512C302.717 6.16699 303.01 6.71484 303.221 7.38867C303.432 8.0625 303.537 8.87988 303.537 9.84082C303.537 10.2568 303.502 10.6787 303.432 11.1064C303.367 11.5283 303.265 11.9385 303.124 12.3369C302.983 12.7295 302.802 13.0986 302.579 13.4443C302.356 13.79 302.09 14.0918 301.779 14.3496C301.469 14.6016 301.111 14.8037 300.707 14.9561C300.309 15.1025 299.857 15.1758 299.354 15.1758ZM309.997 14.165C310.419 14.165 310.785 14.1064 311.096 13.9893C311.412 13.8662 311.682 13.7021 311.904 13.4971C312.133 13.2861 312.32 13.043 312.467 12.7676C312.613 12.4922 312.73 12.2021 312.818 11.8975C312.906 11.5869 312.968 11.2705 313.003 10.9482C313.038 10.626 313.056 10.3154 313.056 10.0166C313.056 9.71777 313.038 9.41016 313.003 9.09375C312.968 8.77148 312.906 8.45801 312.818 8.15332C312.73 7.84277 312.613 7.5498 312.467 7.27441C312.32 6.99902 312.133 6.75879 311.904 6.55371C311.682 6.34277 311.412 6.17871 311.096 6.06152C310.779 5.93848 310.413 5.87695 309.997 5.87695C309.581 5.87695 309.215 5.93848 308.898 6.06152C308.588 6.18457 308.318 6.35156 308.09 6.5625C307.867 6.76758 307.68 7.00781 307.527 7.2832C307.381 7.55859 307.264 7.84863 307.176 8.15332C307.088 8.45801 307.026 8.77148 306.991 9.09375C306.956 9.41602 306.938 9.72363 306.938 10.0166C306.938 10.3154 306.956 10.626 306.991 10.9482C307.026 11.2646 307.088 11.5781 307.176 11.8887C307.264 12.1934 307.381 12.4834 307.527 12.7588C307.68 13.0342 307.867 13.2773 308.09 13.4883C308.318 13.6934 308.588 13.8574 308.898 13.9805C309.215 14.1035 309.581 14.165 309.997 14.165ZM314.646 9.99023C314.646 10.4004 314.617 10.8193 314.559 11.2471C314.5 11.6689 314.4 12.0791 314.26 12.4775C314.119 12.876 313.932 13.248 313.697 13.5938C313.469 13.9395 313.182 14.2412 312.836 14.499C312.496 14.7568 312.089 14.959 311.614 15.1055C311.146 15.2578 310.604 15.334 309.988 15.334C309.373 15.334 308.828 15.2578 308.354 15.1055C307.885 14.959 307.478 14.7568 307.132 14.499C306.792 14.2412 306.505 13.9395 306.271 13.5938C306.042 13.248 305.857 12.876 305.717 12.4775C305.576 12.0791 305.477 11.6689 305.418 11.2471C305.359 10.8252 305.33 10.4062 305.33 9.99023C305.33 9.57422 305.359 9.15527 305.418 8.7334C305.477 8.30566 305.576 7.89551 305.717 7.50293C305.857 7.10449 306.042 6.73242 306.271 6.38672C306.505 6.04102 306.792 5.73926 307.132 5.48145C307.478 5.22363 307.885 5.02148 308.354 4.875C308.828 4.72852 309.373 4.65527 309.988 4.65527C310.604 4.65527 311.146 4.72852 311.614 4.875C312.089 5.02148 312.496 5.22363 312.836 5.48145C313.182 5.73926 313.469 6.04102 313.697 6.38672C313.932 6.73242 314.119 7.10449 314.26 7.50293C314.4 7.89551 314.5 8.30566 314.559 8.7334C314.617 9.15527 314.646 9.57422 314.646 9.99023ZM318.602 15H316.932V1.12207L318.602 0.814453V15ZM321.537 15V4.72559H323.137V15H321.537ZM321.388 2.15039C321.388 2.00977 321.411 1.88086 321.458 1.76367C321.511 1.64062 321.581 1.53223 321.669 1.43848C321.757 1.34473 321.859 1.27148 321.977 1.21875C322.094 1.16602 322.22 1.13965 322.354 1.13965C322.495 1.13965 322.624 1.16895 322.741 1.22754C322.858 1.28027 322.961 1.35352 323.049 1.44727C323.137 1.54102 323.204 1.64941 323.251 1.77246C323.298 1.89551 323.321 2.02148 323.321 2.15039C323.321 2.29102 323.295 2.42285 323.242 2.5459C323.195 2.66309 323.128 2.76855 323.04 2.8623C322.952 2.95605 322.85 3.0293 322.732 3.08203C322.615 3.13477 322.489 3.16113 322.354 3.16113C322.214 3.16113 322.085 3.13477 321.968 3.08203C321.851 3.02344 321.748 2.94727 321.66 2.85352C321.572 2.75977 321.505 2.6543 321.458 2.53711C321.411 2.41406 321.388 2.28516 321.388 2.15039ZM327.619 9.86719C327.32 9.76172 327.039 9.63281 326.775 9.48047C326.512 9.32227 326.283 9.1377 326.09 8.92676C325.896 8.70996 325.744 8.46387 325.633 8.18848C325.521 7.91309 325.466 7.60254 325.466 7.25684C325.466 6.7998 325.56 6.40137 325.747 6.06152C325.94 5.71582 326.195 5.43164 326.512 5.20898C326.828 4.98633 327.188 4.81934 327.593 4.70801C327.997 4.59668 328.416 4.54102 328.85 4.54102C329.236 4.54102 329.611 4.5791 329.975 4.65527C330.344 4.73145 330.681 4.8252 330.985 4.93652C331.296 5.04785 331.565 5.16797 331.794 5.29688C332.022 5.41992 332.195 5.52832 332.312 5.62207L331.768 6.72949C331.41 6.4541 330.991 6.22266 330.511 6.03516C330.036 5.8418 329.521 5.74512 328.964 5.74512C328.618 5.74512 328.313 5.78613 328.05 5.86816C327.792 5.94434 327.575 6.0498 327.399 6.18457C327.224 6.31348 327.092 6.46289 327.004 6.63281C326.916 6.80273 326.872 6.98145 326.872 7.16895C326.872 7.49707 326.998 7.7666 327.25 7.97754C327.508 8.18262 327.862 8.36426 328.313 8.52246L329.79 9.04102C330.241 9.19922 330.648 9.37207 331.012 9.55957C331.381 9.74707 331.694 9.96387 331.952 10.21C332.216 10.4561 332.418 10.7373 332.559 11.0537C332.705 11.3701 332.778 11.7334 332.778 12.1436C332.778 12.5127 332.714 12.8789 332.585 13.2422C332.462 13.6055 332.257 13.9307 331.97 14.2178C331.688 14.5049 331.319 14.7393 330.862 14.9209C330.405 15.0967 329.843 15.1846 329.175 15.1846C328.718 15.1846 328.293 15.1436 327.9 15.0615C327.514 14.9795 327.168 14.8828 326.863 14.7715C326.559 14.6543 326.295 14.5342 326.072 14.4111C325.85 14.2822 325.677 14.1738 325.554 14.0859L326.107 12.9697C326.236 13.0752 326.409 13.1865 326.626 13.3037C326.849 13.4209 327.092 13.5293 327.355 13.6289C327.625 13.7285 327.903 13.8105 328.19 13.875C328.478 13.9395 328.753 13.9717 329.017 13.9717C329.21 13.9717 329.436 13.9482 329.693 13.9014C329.957 13.8545 330.203 13.7695 330.432 13.6465C330.666 13.5234 330.862 13.3535 331.021 13.1367C331.185 12.9199 331.267 12.6445 331.267 12.3105C331.267 12.0762 331.226 11.8711 331.144 11.6953C331.062 11.5137 330.944 11.3555 330.792 11.2207C330.646 11.0801 330.47 10.957 330.265 10.8516C330.06 10.7461 329.834 10.6494 329.588 10.5615L327.619 9.86719ZM344.564 14.0244C345.303 14.0244 345.918 13.9277 346.41 13.7344C346.902 13.5352 347.292 13.2246 347.579 12.8027C347.872 12.3809 348.077 11.8359 348.194 11.168C348.317 10.5 348.379 9.69434 348.379 8.75098V1.12207H350.084V8.71582C350.084 9.75879 349.981 10.6934 349.776 11.5195C349.577 12.3398 349.261 13.0342 348.827 13.6025C348.394 14.1709 347.831 14.6074 347.14 14.9121C346.448 15.2109 345.616 15.3604 344.644 15.3604C343.601 15.3604 342.722 15.2109 342.007 14.9121C341.298 14.6074 340.724 14.1709 340.284 13.6025C339.845 13.0283 339.528 12.3311 339.335 11.5107C339.142 10.6904 339.045 9.75879 339.045 8.71582V1.12207H340.75V8.75098C340.75 9.69434 340.823 10.5 340.97 11.168C341.116 11.8359 341.342 12.3809 341.646 12.8027C341.957 13.2246 342.353 13.5352 342.833 13.7344C343.319 13.9277 343.896 14.0244 344.564 14.0244ZM354.057 6.36914C354.232 6.15234 354.467 5.93555 354.76 5.71875C355.053 5.50195 355.372 5.30566 355.718 5.12988C356.069 4.9541 356.433 4.81348 356.808 4.70801C357.188 4.59668 357.552 4.54102 357.897 4.54102C358.513 4.54102 359.031 4.63477 359.453 4.82227C359.881 5.00391 360.229 5.27051 360.499 5.62207C360.769 5.96777 360.962 6.39258 361.079 6.89648C361.202 7.40039 361.264 7.97168 361.264 8.61035V15H359.594V8.61035C359.594 8.16504 359.559 7.7666 359.488 7.41504C359.418 7.05762 359.304 6.75586 359.146 6.50977C358.987 6.26367 358.782 6.07617 358.53 5.94727C358.278 5.8125 357.968 5.74512 357.599 5.74512C357.317 5.74512 357.01 5.80078 356.676 5.91211C356.342 6.02344 356.02 6.1582 355.709 6.31641C355.398 6.47461 355.114 6.6416 354.856 6.81738C354.599 6.99316 354.408 7.14258 354.285 7.26562V15H352.615V4.72559H353.846L354.057 6.36914ZM364.023 15V4.72559H365.623V15H364.023ZM363.874 2.15039C363.874 2.00977 363.897 1.88086 363.944 1.76367C363.997 1.64062 364.067 1.53223 364.155 1.43848C364.243 1.34473 364.346 1.27148 364.463 1.21875C364.58 1.16602 364.706 1.13965 364.841 1.13965C364.981 1.13965 365.11 1.16895 365.228 1.22754C365.345 1.28027 365.447 1.35352 365.535 1.44727C365.623 1.54102 365.69 1.64941 365.737 1.77246C365.784 1.89551 365.808 2.02148 365.808 2.15039C365.808 2.29102 365.781 2.42285 365.729 2.5459C365.682 2.66309 365.614 2.76855 365.526 2.8623C365.438 2.95605 365.336 3.0293 365.219 3.08203C365.102 3.13477 364.976 3.16113 364.841 3.16113C364.7 3.16113 364.571 3.13477 364.454 3.08203C364.337 3.02344 364.234 2.94727 364.146 2.85352C364.059 2.75977 363.991 2.6543 363.944 2.53711C363.897 2.41406 363.874 2.28516 363.874 2.15039ZM371.292 15L367.53 4.72559H369.183L372.136 13.251L375.036 4.72559H376.706L372.927 15H371.292ZM385.935 14.1123C385.7 14.2822 385.434 14.4346 385.135 14.5693C384.836 14.6982 384.531 14.8096 384.221 14.9033C383.916 14.9912 383.62 15.0586 383.333 15.1055C383.046 15.1523 382.8 15.1758 382.595 15.1758C381.821 15.1758 381.145 15.0469 380.564 14.7891C379.99 14.5312 379.513 14.1709 379.132 13.708C378.751 13.2393 378.464 12.6855 378.271 12.0469C378.083 11.4023 377.989 10.6934 377.989 9.91992C377.989 9.22266 378.08 8.55176 378.262 7.90723C378.449 7.25684 378.725 6.68262 379.088 6.18457C379.451 5.68652 379.902 5.28809 380.441 4.98926C380.98 4.69043 381.607 4.54102 382.322 4.54102C382.99 4.54102 383.576 4.64355 384.08 4.84863C384.59 5.04785 385.018 5.33789 385.363 5.71875C385.709 6.09961 385.97 6.56543 386.146 7.11621C386.321 7.66699 386.409 8.29102 386.409 8.98828C386.409 9.17578 386.403 9.35742 386.392 9.5332C386.38 9.70312 386.362 9.86426 386.339 10.0166H379.659C379.659 10.749 379.729 11.3672 379.87 11.8711C380.011 12.375 380.213 12.7822 380.477 13.0928C380.74 13.4033 381.062 13.6289 381.443 13.7695C381.824 13.9043 382.255 13.9717 382.735 13.9717C383.017 13.9717 383.274 13.9512 383.509 13.9102C383.743 13.8633 383.963 13.7988 384.168 13.7168C384.379 13.6289 384.581 13.5205 384.774 13.3916C384.974 13.2627 385.179 13.1133 385.39 12.9434L385.935 14.1123ZM384.933 8.69824C384.933 8.22949 384.874 7.81348 384.757 7.4502C384.64 7.08105 384.476 6.77051 384.265 6.51855C384.054 6.2666 383.802 6.07617 383.509 5.94727C383.222 5.8125 382.905 5.74512 382.56 5.74512C382.097 5.74512 381.692 5.83008 381.347 6C381.001 6.16992 380.708 6.40137 380.468 6.69434C380.233 6.9873 380.049 7.33301 379.914 7.73145C379.785 8.12402 379.7 8.54883 379.659 9.00586H384.933V8.69824ZM389.942 6.41309C390.142 6.16699 390.344 5.92969 390.549 5.70117C390.754 5.47266 390.968 5.27344 391.19 5.10352C391.419 4.93359 391.662 4.79883 391.92 4.69922C392.178 4.59375 392.462 4.54102 392.772 4.54102C393.101 4.54102 393.394 4.57617 393.651 4.64648V5.98242C393.64 5.97656 393.607 5.9707 393.555 5.96484C393.502 5.95898 393.435 5.95605 393.353 5.95605C393.271 5.9502 393.177 5.94727 393.071 5.94727C392.966 5.94727 392.86 5.94727 392.755 5.94727C392.509 5.94727 392.266 5.98828 392.025 6.07031C391.785 6.15234 391.551 6.26074 391.322 6.39551C391.1 6.52441 390.883 6.67383 390.672 6.84375C390.467 7.00781 390.273 7.17773 390.092 7.35352V15H388.422V4.72559H389.679L389.942 6.41309ZM397.193 9.86719C396.895 9.76172 396.613 9.63281 396.35 9.48047C396.086 9.32227 395.857 9.1377 395.664 8.92676C395.471 8.70996 395.318 8.46387 395.207 8.18848C395.096 7.91309 395.04 7.60254 395.04 7.25684C395.04 6.7998 395.134 6.40137 395.321 6.06152C395.515 5.71582 395.77 5.43164 396.086 5.20898C396.402 4.98633 396.763 4.81934 397.167 4.70801C397.571 4.59668 397.99 4.54102 398.424 4.54102C398.811 4.54102 399.186 4.5791 399.549 4.65527C399.918 4.73145 400.255 4.8252 400.56 4.93652C400.87 5.04785 401.14 5.16797 401.368 5.29688C401.597 5.41992 401.77 5.52832 401.887 5.62207L401.342 6.72949C400.984 6.4541 400.565 6.22266 400.085 6.03516C399.61 5.8418 399.095 5.74512 398.538 5.74512C398.192 5.74512 397.888 5.78613 397.624 5.86816C397.366 5.94434 397.149 6.0498 396.974 6.18457C396.798 6.31348 396.666 6.46289 396.578 6.63281C396.49 6.80273 396.446 6.98145 396.446 7.16895C396.446 7.49707 396.572 7.7666 396.824 7.97754C397.082 8.18262 397.437 8.36426 397.888 8.52246L399.364 9.04102C399.815 9.19922 400.223 9.37207 400.586 9.55957C400.955 9.74707 401.269 9.96387 401.526 10.21C401.79 10.4561 401.992 10.7373 402.133 11.0537C402.279 11.3701 402.353 11.7334 402.353 12.1436C402.353 12.5127 402.288 12.8789 402.159 13.2422C402.036 13.6055 401.831 13.9307 401.544 14.2178C401.263 14.5049 400.894 14.7393 400.437 14.9209C399.979 15.0967 399.417 15.1846 398.749 15.1846C398.292 15.1846 397.867 15.1436 397.475 15.0615C397.088 14.9795 396.742 14.8828 396.438 14.7715C396.133 14.6543 395.869 14.5342 395.646 14.4111C395.424 14.2822 395.251 14.1738 395.128 14.0859L395.682 12.9697C395.811 13.0752 395.983 13.1865 396.2 13.3037C396.423 13.4209 396.666 13.5293 396.93 13.6289C397.199 13.7285 397.478 13.8105 397.765 13.875C398.052 13.9395 398.327 13.9717 398.591 13.9717C398.784 13.9717 399.01 13.9482 399.268 13.9014C399.531 13.8545 399.777 13.7695 400.006 13.6465C400.24 13.5234 400.437 13.3535 400.595 13.1367C400.759 12.9199 400.841 12.6445 400.841 12.3105C400.841 12.0762 400.8 11.8711 400.718 11.6953C400.636 11.5137 400.519 11.3555 400.366 11.2207C400.22 11.0801 400.044 10.957 399.839 10.8516C399.634 10.7461 399.408 10.6494 399.162 10.5615L397.193 9.86719ZM404.471 15V4.72559H406.07V15H404.471ZM404.321 2.15039C404.321 2.00977 404.345 1.88086 404.392 1.76367C404.444 1.64062 404.515 1.53223 404.603 1.43848C404.69 1.34473 404.793 1.27148 404.91 1.21875C405.027 1.16602 405.153 1.13965 405.288 1.13965C405.429 1.13965 405.558 1.16895 405.675 1.22754C405.792 1.28027 405.895 1.35352 405.982 1.44727C406.07 1.54102 406.138 1.64941 406.185 1.77246C406.231 1.89551 406.255 2.02148 406.255 2.15039C406.255 2.29102 406.229 2.42285 406.176 2.5459C406.129 2.66309 406.062 2.76855 405.974 2.8623C405.886 2.95605 405.783 3.0293 405.666 3.08203C405.549 3.13477 405.423 3.16113 405.288 3.16113C405.147 3.16113 405.019 3.13477 404.901 3.08203C404.784 3.02344 404.682 2.94727 404.594 2.85352C404.506 2.75977 404.438 2.6543 404.392 2.53711C404.345 2.41406 404.321 2.28516 404.321 2.15039ZM411.845 15.1758C411.329 15.1758 410.916 15.0908 410.605 14.9209C410.295 14.7451 410.058 14.4902 409.894 14.1562C409.729 13.8164 409.621 13.3975 409.568 12.8994C409.516 12.3955 409.489 11.8154 409.489 11.1592V5.63965H407.881V4.72559H409.516L409.735 1.55273L411.159 1.14844V4.72559H414.086V5.63965H411.159V12.4072C411.159 12.7236 411.174 12.9844 411.203 13.1895C411.238 13.3887 411.294 13.5469 411.37 13.6641C411.446 13.7812 411.546 13.8633 411.669 13.9102C411.798 13.9512 411.956 13.9717 412.144 13.9717C412.354 13.9717 412.598 13.9131 412.873 13.7959C413.154 13.6729 413.532 13.4795 414.007 13.2158L414.596 14.2969C414.08 14.6133 413.6 14.8389 413.154 14.9736C412.709 15.1084 412.272 15.1758 411.845 15.1758ZM415.501 4.72559H417.101L420.221 12.8115L422.866 4.72559H424.58L420.739 15.3252C420.575 15.7764 420.394 16.1748 420.194 16.5205C420.001 16.8721 419.799 17.1768 419.588 17.4346C419.377 17.6924 419.166 17.9121 418.955 18.0938C418.744 18.2754 418.539 18.4248 418.34 18.542C417.877 18.8232 417.405 18.9873 416.925 19.0342L416.477 17.9355C416.822 17.8535 417.145 17.7422 417.443 17.6016C417.742 17.4668 418.015 17.2793 418.261 17.0391C418.507 16.7988 418.729 16.4971 418.929 16.1338C419.134 15.7705 419.312 15.3252 419.465 14.7979L415.501 4.72559Z" fill="white"/>
</svg>
