<svg width="574" height="166" viewBox="0 0 574 166" fill="none" xmlns="http://www.w3.org/2000/svg">
<path d="M22.248 164L20.2659 164.267L20.4993 166H22.248V164ZM0.467969 2.3V0.299997H-1.81948L-1.51413 2.56697L0.467969 2.3ZM22.468 2.3L24.4554 2.07628L24.2555 0.299997H22.468V2.3ZM31.928 86.34L33.9211 86.1739L33.9187 86.1451L33.9154 86.1163L31.928 86.34ZM32.368 91.62L30.3749 91.7861L30.5277 93.62H32.368V91.62ZM34.128 91.62V93.62H35.8935L36.1125 91.8681L34.128 91.62ZM34.788 86.34L36.7725 86.5881L36.7736 86.5791L34.788 86.34ZM44.908 2.3V0.299997H43.1344L42.9223 2.06089L44.908 2.3ZM62.068 2.3L64.0536 2.06089L63.8416 0.299997H62.068V2.3ZM72.188 86.34L70.2023 86.5791L70.2034 86.5881L72.188 86.34ZM72.848 91.62L70.8634 91.8681L71.0824 93.62H72.848V91.62ZM74.608 91.62V93.62H76.4482L76.6011 91.7861L74.608 91.62ZM75.048 86.34L73.0605 86.1163L73.0573 86.1451L73.0549 86.1739L75.048 86.34ZM84.508 2.3V0.299997H82.7205L82.5205 2.07628L84.508 2.3ZM106.508 2.3L108.49 2.56697L108.795 0.299997H106.508V2.3ZM84.728 164V166H86.4766L86.7101 164.267L84.728 164ZM66.248 164L64.2683 164.284L64.5148 166H66.248V164ZM55.248 87.44L53.2671 87.7164L53.2683 87.7244L55.248 87.44ZM53.928 77.98L55.9088 77.7036L55.6683 75.98H53.928V77.98ZM53.048 77.98V75.98H51.3077L51.0672 77.7036L53.048 77.98ZM51.728 87.44L53.7077 87.7244L53.7088 87.7164L51.728 87.44ZM40.728 164V166H42.4612L42.7076 164.284L40.728 164ZM24.2301 163.733L2.45007 2.03302L-1.51413 2.56697L20.2659 164.267L24.2301 163.733ZM0.467969 4.3H22.468V0.299997H0.467969V4.3ZM20.4805 2.52371L29.9405 86.5637L33.9154 86.1163L24.4554 2.07628L20.4805 2.52371ZM29.9349 86.5061L30.3749 91.7861L34.3611 91.4539L33.9211 86.1739L29.9349 86.5061ZM32.368 93.62H34.128V89.62H32.368V93.62ZM36.1125 91.8681L36.7725 86.5881L32.8034 86.0919L32.1434 91.3719L36.1125 91.8681ZM36.7736 86.5791L46.8936 2.53911L42.9223 2.06089L32.8023 86.1009L36.7736 86.5791ZM44.908 4.3H62.068V0.299997H44.908V4.3ZM60.0823 2.53911L70.2023 86.5791L74.1736 86.1009L64.0536 2.06089L60.0823 2.53911ZM70.2034 86.5881L70.8634 91.8681L74.8325 91.3719L74.1725 86.0919L70.2034 86.5881ZM72.848 93.62H74.608V89.62H72.848V93.62ZM76.6011 91.7861L77.0411 86.5061L73.0549 86.1739L72.6149 91.4539L76.6011 91.7861ZM77.0354 86.5637L86.4954 2.52371L82.5205 2.07628L73.0605 86.1163L77.0354 86.5637ZM84.508 4.3H106.508V0.299997H84.508V4.3ZM104.526 2.03302L82.7459 163.733L86.7101 164.267L108.49 2.56697L104.526 2.03302ZM84.728 162H66.248V166H84.728V162ZM68.2276 163.716L57.2276 87.1556L53.2683 87.7244L64.2683 164.284L68.2276 163.716ZM57.2288 87.1636L55.9088 77.7036L51.9472 78.2564L53.2672 87.7164L57.2288 87.1636ZM53.928 75.98H53.048V79.98H53.928V75.98ZM51.0672 77.7036L49.7472 87.1636L53.7088 87.7164L55.0288 78.2564L51.0672 77.7036ZM49.7483 87.1556L38.7483 163.716L42.7076 164.284L53.7076 87.7244L49.7483 87.1556ZM40.728 162H22.248V166H40.728V162ZM118.546 164H116.546V166H118.546V164ZM118.546 2.3V0.299997H116.546V2.3H118.546ZM172.886 2.3H174.886V0.299997H172.886V2.3ZM172.886 26.72V28.72H174.886V26.72H172.886ZM142.306 26.72V24.72H140.306V26.72H142.306ZM142.306 70.28H140.306V72.28H142.306V70.28ZM164.306 70.28H166.306V68.28H164.306V70.28ZM164.306 94.04V96.04H166.306V94.04H164.306ZM142.306 94.04V92.04H140.306V94.04H142.306ZM142.306 139.58H140.306V141.58H142.306V139.58ZM172.886 139.58H174.886V137.58H172.886V139.58ZM172.886 164V166H174.886V164H172.886ZM120.546 164V2.3H116.546V164H120.546ZM118.546 4.3H172.886V0.299997H118.546V4.3ZM170.886 2.3V26.72H174.886V2.3H170.886ZM172.886 24.72H142.306V28.72H172.886V24.72ZM140.306 26.72V70.28H144.306V26.72H140.306ZM142.306 72.28H164.306V68.28H142.306V72.28ZM162.306 70.28V94.04H166.306V70.28H162.306ZM164.306 92.04H142.306V96.04H164.306V92.04ZM140.306 94.04V139.58H144.306V94.04H140.306ZM142.306 141.58H172.886V137.58H142.306V141.58ZM170.886 139.58V164H174.886V139.58H170.886ZM172.886 162H118.546V166H172.886V162ZM190.519 164H188.519V166H190.519V164ZM190.519 2.3V0.299997H188.519V2.3H190.519ZM214.279 2.3H216.279V0.299997H214.279V2.3ZM214.279 142H212.279V144H214.279V142ZM245.739 142H247.739V140H245.739V142ZM245.739 164V166H247.739V164H245.739ZM192.519 164V2.3H188.519V164H192.519ZM190.519 4.3H214.279V0.299997H190.519V4.3ZM212.279 2.3V142H216.279V2.3H212.279ZM214.279 144H245.739V140H214.279V144ZM243.739 142V164H247.739V142H243.739ZM245.739 162H190.519V166H245.739V162ZM268.712 161.25L267.614 162.922L267.629 162.932L267.645 162.942L268.712 161.25ZM257.932 148.71L256.113 149.543L256.118 149.554L256.123 149.564L257.932 148.71ZM258.042 17.7L256.243 16.8256L256.238 16.8358L256.233 16.846L258.042 17.7ZM269.042 5.15999L267.956 3.48015L267.956 3.48015L269.042 5.15999ZM309.082 10.88L307.551 12.1672L307.567 12.186L307.583 12.2044L309.082 10.88ZM315.462 21.99L313.571 22.642L313.574 22.6522L315.462 21.99ZM317.662 57.74V59.74H319.662V57.74H317.662ZM295.442 57.74H293.442V59.74H295.442V57.74ZM293.352 27.05L291.646 28.0951L291.646 28.0951L293.352 27.05ZM280.042 27.16L278.298 26.1795L278.298 26.1795L280.042 27.16ZM280.152 139.14L278.432 140.161L278.443 140.181L278.456 140.2L280.152 139.14ZM293.352 139.25L291.646 138.205L291.634 138.225L291.622 138.246L293.352 139.25ZM295.442 108.56V106.56H293.442V108.56H295.442ZM317.662 108.56H319.662V106.56H317.662V108.56ZM313.812 148.6L312.013 147.726L312.013 147.726L313.812 148.6ZM302.812 161.14L301.726 159.46L301.72 159.464L301.714 159.468L302.812 161.14ZM285.982 163.76C279.537 163.76 274.168 162.327 269.779 159.558L267.645 162.942C272.789 166.186 278.932 167.76 285.982 167.76V163.76ZM269.809 159.578C265.436 156.708 262.083 152.817 259.74 147.856L256.123 149.564C258.767 155.163 262.6 159.632 267.614 162.922L269.809 159.578ZM259.75 147.877C257.466 142.894 256.302 137.208 256.302 130.78H252.302C252.302 137.698 253.557 143.966 256.113 149.543L259.75 147.877ZM256.302 130.78V35.52H252.302V130.78H256.302ZM256.302 35.52C256.302 29.1767 257.498 23.5341 259.85 18.554L256.233 16.846C253.598 22.4259 252.302 28.6633 252.302 35.52H256.302ZM259.84 18.5744C262.253 13.6111 265.678 9.71448 270.127 6.83982L267.956 3.48015C262.872 6.7655 258.963 11.2289 256.243 16.8256L259.84 18.5744ZM270.127 6.83982C274.524 3.99879 279.781 2.53999 285.982 2.53999V-1.46001C279.129 -1.46001 273.093 0.161195 267.956 3.48015L270.127 6.83982ZM285.982 2.53999C290.642 2.53999 294.744 3.40827 298.328 5.09885L300.035 1.48113C295.846 -0.494949 291.148 -1.46001 285.982 -1.46001V2.53999ZM298.328 5.09885C301.959 6.81162 305.027 9.16557 307.551 12.1672L310.612 9.59279C307.71 6.14107 304.177 3.43502 300.035 1.48113L298.328 5.09885ZM307.583 12.2044C310.184 15.1481 312.184 18.619 313.571 22.642L317.352 21.338C315.806 16.8543 313.552 12.9185 310.58 9.5556L307.583 12.2044ZM313.574 22.6522C314.96 26.6006 315.662 30.8847 315.662 35.52H319.662C319.662 30.4753 318.897 25.7394 317.349 21.3278L313.574 22.6522ZM315.662 35.52V57.74H319.662V35.52H315.662ZM317.662 55.74H295.442V59.74H317.662V55.74ZM297.442 57.74V35.52H293.442V57.74H297.442ZM297.442 35.52C297.442 31.8745 296.688 28.6661 295.057 26.0049L291.646 28.0951C292.802 29.9805 293.442 32.4188 293.442 35.52H297.442ZM295.057 26.0049C293.219 23.0063 290.174 21.64 286.422 21.64V25.64C289.123 25.64 290.698 26.547 291.646 28.0951L295.057 26.0049ZM286.422 21.64C282.845 21.64 280.01 23.1371 278.298 26.1795L281.785 28.1405C282.713 26.4896 284.132 25.64 286.422 25.64V21.64ZM278.298 26.1795C276.78 28.8797 276.062 32.0179 276.062 35.52H280.062C280.062 32.5687 280.664 30.1336 281.785 28.1405L278.298 26.1795ZM276.062 35.52V130.78H280.062V35.52H276.062ZM276.062 130.78C276.062 134.3 276.824 137.453 278.432 140.161L281.871 138.119C280.692 136.133 280.062 133.713 280.062 130.78H276.062ZM278.456 140.2C280.279 143.117 283.002 144.66 286.422 144.66V140.66C284.414 140.66 282.958 139.856 281.848 138.08L278.456 140.2ZM286.422 144.66C290.223 144.66 293.308 143.307 295.081 140.254L291.622 138.246C290.755 139.739 289.22 140.66 286.422 140.66V144.66ZM295.057 140.295C296.688 137.634 297.442 134.425 297.442 130.78H293.442C293.442 133.881 292.802 136.319 291.646 138.205L295.057 140.295ZM297.442 130.78V108.56H293.442V130.78H297.442ZM295.442 110.56H317.662V106.56H295.442V110.56ZM315.662 108.56V130.78H319.662V108.56H315.662ZM315.662 130.78C315.662 137.115 314.431 142.75 312.013 147.726L315.61 149.474C318.325 143.89 319.662 137.645 319.662 130.78H315.662ZM312.013 147.726C309.6 152.689 306.175 156.586 301.726 159.46L303.897 162.82C308.981 159.534 312.89 155.071 315.61 149.474L312.013 147.726ZM301.714 159.468C297.397 162.301 292.183 163.76 285.982 163.76V167.76C292.833 167.76 298.839 166.139 303.909 162.812L301.714 159.468ZM347.779 161.14L346.682 162.812L346.688 162.816L346.694 162.82L347.779 161.14ZM336.889 148.6L335.081 149.454L335.086 149.464L335.09 149.474L336.889 148.6ZM336.889 17.7L335.09 16.8256L335.085 16.8362L336.889 17.7ZM347.779 5.15999L346.694 3.48015L346.688 3.484L346.682 3.48789L347.779 5.15999ZM381.769 5.15999L380.672 6.83208L380.678 6.83597L380.684 6.83982L381.769 5.15999ZM392.659 17.7L390.851 18.554L390.856 18.5642L390.86 18.5744L392.659 17.7ZM392.659 148.6L390.86 147.726L390.856 147.736L390.851 147.746L392.659 148.6ZM381.769 161.14L380.684 159.46L380.678 159.464L380.672 159.468L381.769 161.14ZM370.989 139.03L372.789 139.903L372.794 139.892L372.799 139.882L370.989 139.03ZM370.879 27.38L369.09 28.2744L369.096 28.2852L369.101 28.2959L370.879 27.38ZM358.779 27.38L357.012 26.4442L357.006 26.4541L357.001 26.4641L358.779 27.38ZM358.779 139.03L356.99 139.924L356.996 139.935L357.001 139.946L358.779 139.03ZM364.829 163.76C358.55 163.76 353.258 162.299 348.865 159.46L346.694 162.82C351.834 166.141 357.908 167.76 364.829 167.76V163.76ZM348.877 159.468C344.499 156.595 341.105 152.697 338.688 147.726L335.09 149.474C337.807 155.063 341.673 159.525 346.682 162.812L348.877 159.468ZM338.698 147.746C336.346 142.766 335.149 137.123 335.149 130.78H331.149C331.149 137.637 332.446 143.874 335.081 149.454L338.698 147.746ZM335.149 130.78V35.52H331.149V130.78H335.149ZM335.149 35.52C335.149 29.0991 336.348 23.4618 338.693 18.5638L335.085 16.8362C332.444 22.3516 331.149 28.5942 331.149 35.52H335.149ZM338.688 18.5744C341.105 13.6031 344.499 9.70502 348.877 6.83208L346.682 3.48789C341.673 6.77497 337.807 11.2369 335.09 16.8256L338.688 18.5744ZM348.865 6.83982C353.258 4.00108 358.55 2.53999 364.829 2.53999V-1.46001C357.908 -1.46001 351.834 0.158902 346.694 3.48015L348.865 6.83982ZM364.829 2.53999C371.109 2.53999 376.358 4.00137 380.672 6.83208L382.867 3.48789C377.793 0.158616 371.749 -1.46001 364.829 -1.46001V2.53999ZM380.684 6.83982C385.128 9.7113 388.512 13.6011 390.851 18.554L394.468 16.846C391.82 11.2389 387.944 6.76868 382.855 3.48015L380.684 6.83982ZM390.86 18.5744C393.279 23.5498 394.509 29.185 394.509 35.52H398.509C398.509 28.655 397.173 22.4102 394.458 16.8256L390.86 18.5744ZM394.509 35.52V130.78H398.509V35.52H394.509ZM394.509 130.78C394.509 137.115 393.279 142.75 390.86 147.726L394.458 149.474C397.173 143.89 398.509 137.645 398.509 130.78H394.509ZM390.851 147.746C388.512 152.699 385.128 156.589 380.684 159.46L382.855 162.82C387.944 159.531 391.82 155.061 394.468 149.454L390.851 147.746ZM380.672 159.468C376.358 162.299 371.109 163.76 364.829 163.76V167.76C371.749 167.76 377.793 166.141 382.867 162.812L380.672 159.468ZM364.829 144.66C366.571 144.66 368.187 144.299 369.585 143.476C370.993 142.646 372.053 141.42 372.789 139.903L369.19 138.157C368.752 139.06 368.199 139.649 367.554 140.029C366.899 140.416 366.021 140.66 364.829 140.66V144.66ZM372.799 139.882C374.109 137.098 374.749 134.054 374.749 130.78H370.749C370.749 133.519 370.216 135.975 369.18 138.178L372.799 139.882ZM374.749 130.78V35.52H370.749V130.78H374.749ZM374.749 35.52C374.749 32.2285 374.065 29.196 372.657 26.4641L369.101 28.2959C370.187 30.404 370.749 32.7981 370.749 35.52H374.749ZM372.668 26.4856C371.908 24.9659 370.859 23.7245 369.483 22.8738C368.107 22.0231 366.528 21.64 364.829 21.64V25.64C365.917 25.64 366.74 25.8802 367.38 26.2762C368.021 26.6722 368.604 27.3007 369.09 28.2744L372.668 26.4856ZM364.829 21.64C363.156 21.64 361.598 22.0282 360.23 22.8738C358.866 23.7168 357.806 24.9433 357.012 26.4442L360.547 28.3158C361.072 27.3234 361.68 26.6798 362.333 26.2762C362.982 25.8751 363.789 25.64 364.829 25.64V21.64ZM357.001 26.4641C355.594 29.196 354.909 32.2285 354.909 35.52H358.909C358.909 32.7981 359.471 30.404 360.557 28.2959L357.001 26.4641ZM354.909 35.52V130.78H358.909V35.52H354.909ZM354.909 130.78C354.909 134.072 355.594 137.132 356.99 139.924L360.568 138.136C359.471 135.941 358.909 133.501 358.909 130.78H354.909ZM357.001 139.946C357.768 141.434 358.823 142.642 360.198 143.467C361.57 144.291 363.141 144.66 364.829 144.66V140.66C363.731 140.66 362.9 140.424 362.256 140.038C361.614 139.653 361.037 139.046 360.557 138.114L357.001 139.946ZM413.097 164H411.097V166H413.097V164ZM413.097 2.3V0.299997H411.097V2.3H413.097ZM443.237 2.3L445.213 1.99393L444.951 0.299997H443.237V2.3ZM456.217 86.12L458.201 85.8657L458.197 85.8398L458.193 85.8139L456.217 86.12ZM457.317 94.7L455.333 94.9543L455.557 96.7H457.317V94.7ZM457.757 94.7V96.7H459.517L459.741 94.9543L457.757 94.7ZM458.857 86.12L456.88 85.8139L456.876 85.8398L456.873 85.8657L458.857 86.12ZM471.837 2.3V0.299997H470.123L469.86 1.99393L471.837 2.3ZM501.977 2.3H503.977V0.299997H501.977V2.3ZM501.977 164V166H503.977V164H501.977ZM479.977 164H477.977V166H479.977V164ZM479.977 55.54H481.977V53.54H479.977V55.54ZM478.657 55.54V53.54H476.898L476.673 55.2841L478.657 55.54ZM477.777 62.36L479.758 62.6344L479.759 62.6252L479.76 62.6159L477.777 62.36ZM463.697 164V166H465.439L465.678 164.274L463.697 164ZM451.377 164L449.396 164.274L449.635 166H451.377V164ZM437.297 62.36L435.313 62.6159L435.315 62.6252L435.316 62.6344L437.297 62.36ZM436.417 55.54L438.4 55.2841L438.175 53.54H436.417V55.54ZM435.097 55.54V53.54H433.097V55.54H435.097ZM435.097 164V166H437.097V164H435.097ZM415.097 164V2.3H411.097V164H415.097ZM413.097 4.3H443.237V0.299997H413.097V4.3ZM441.26 2.60606L454.24 86.4261L458.193 85.8139L445.213 1.99393L441.26 2.60606ZM454.233 86.3743L455.333 94.9543L459.301 94.4457L458.201 85.8657L454.233 86.3743ZM457.317 96.7H457.757V92.7H457.317V96.7ZM459.741 94.9543L460.841 86.3743L456.873 85.8657L455.773 94.4457L459.741 94.9543ZM460.833 86.4261L473.813 2.60606L469.86 1.99393L456.88 85.8139L460.833 86.4261ZM471.837 4.3H501.977V0.299997H471.837V4.3ZM499.977 2.3V164H503.977V2.3H499.977ZM501.977 162H479.977V166H501.977V162ZM481.977 164V55.54H477.977V164H481.977ZM479.977 53.54H478.657V57.54H479.977V53.54ZM476.673 55.2841L475.793 62.1041L479.76 62.6159L480.64 55.7959L476.673 55.2841ZM475.796 62.0856L461.716 163.726L465.678 164.274L479.758 62.6344L475.796 62.0856ZM463.697 162H451.377V166H463.697V162ZM453.358 163.726L439.278 62.0856L435.316 62.6344L449.396 164.274L453.358 163.726ZM439.28 62.1041L438.4 55.2841L434.433 55.7959L435.313 62.6159L439.28 62.1041ZM436.417 53.54H435.097V57.54H436.417V53.54ZM433.097 55.54V164H437.097V55.54H433.097ZM435.097 162H413.097V166H435.097V162ZM519.659 164H517.659V166H519.659V164ZM519.659 2.3V0.299997H517.659V2.3H519.659ZM573.999 2.3H575.999V0.299997H573.999V2.3ZM573.999 26.72V28.72H575.999V26.72H573.999ZM543.419 26.72V24.72H541.419V26.72H543.419ZM543.419 70.28H541.419V72.28H543.419V70.28ZM565.419 70.28H567.419V68.28H565.419V70.28ZM565.419 94.04V96.04H567.419V94.04H565.419ZM543.419 94.04V92.04H541.419V94.04H543.419ZM543.419 139.58H541.419V141.58H543.419V139.58ZM573.999 139.58H575.999V137.58H573.999V139.58ZM573.999 164V166H575.999V164H573.999ZM521.659 164V2.3H517.659V164H521.659ZM519.659 4.3H573.999V0.299997H519.659V4.3ZM571.999 2.3V26.72H575.999V2.3H571.999ZM573.999 24.72H543.419V28.72H573.999V24.72ZM541.419 26.72V70.28H545.419V26.72H541.419ZM543.419 72.28H565.419V68.28H543.419V72.28ZM563.419 70.28V94.04H567.419V70.28H563.419ZM565.419 92.04H543.419V96.04H565.419V92.04ZM541.419 94.04V139.58H545.419V94.04H541.419ZM543.419 141.58H573.999V137.58H543.419V141.58ZM571.999 139.58V164H575.999V139.58H571.999ZM573.999 162H519.659V166H573.999V162Z" fill="white"/>
</svg>
